<?xml version="1.0" standalone="no"?>
<!DOCTYPE svg PUBLIC "-//W3C//DTD SVG 20010904//EN"
 "http://www.w3.org/TR/2001/REC-SVG-20010904/DTD/svg10.dtd">
<svg version="1.0" xmlns="http://www.w3.org/2000/svg"
 width="612.000000pt" height="408.000000pt" viewBox="0 0 612.000000 408.000000"
 preserveAspectRatio="xMidYMid meet">

<g transform="translate(0.000000,408.000000) scale(0.100000,-0.100000)"
fill="#000000" stroke="none">
<path d="M3505 2680 c3 -5 11 -10 16 -10 6 0 7 5 4 10 -3 6 -11 10 -16 10 -6
0 -7 -4 -4 -10z"/>
<path d="M3360 2672 c0 -10 67 -37 95 -38 11 -1 29 -2 41 -3 11 0 21 -8 21
-16 0 -19 -6 -19 -29 2 -10 9 -21 13 -25 9 -7 -7 44 -56 59 -56 4 0 8 7 8 16
0 8 5 12 11 9 6 -4 7 -19 4 -36 -4 -17 -2 -29 4 -29 5 0 11 10 13 22 3 21 4
21 16 -5 6 -16 8 -25 2 -22 -5 3 -10 -1 -10 -9 0 -9 5 -17 10 -17 20 -3 25 -5
48 -19 27 -18 29 -30 2 -23 -16 4 -19 2 -14 -11 3 -9 10 -13 15 -10 5 3 9 -1
9 -9 0 -8 7 -20 15 -27 9 -8 15 -8 15 -2 0 6 -5 12 -11 14 -7 2 -10 11 -7 19
3 9 12 3 26 -21 32 -51 27 -31 -8 35 -16 31 -30 54 -30 49 0 -4 -9 1 -20 11
-20 18 -29 51 -10 40 6 -3 7 1 4 9 -3 8 -14 18 -25 21 -10 4 -19 12 -19 20 0
15 -43 45 -65 45 -9 0 -14 4 -11 8 3 5 -8 6 -25 4 -16 -2 -44 3 -63 12 -38 18
-46 19 -46 8z"/>
<path d="M3430 2676 c0 -2 7 -7 16 -10 8 -3 12 -2 9 4 -6 10 -25 14 -25 6z"/>
<path d="M3310 2650 c8 -5 23 -10 33 -10 9 0 17 -4 17 -10 0 -5 7 -10 15 -10
9 0 18 -7 21 -15 4 -8 15 -15 25 -15 10 0 19 -7 19 -15 0 -8 8 -15 18 -15 13
0 14 -2 3 -9 -10 -6 -4 -12 23 -22 23 -8 35 -18 31 -27 -2 -7 -1 -10 4 -7 5 3
16 -4 25 -16 8 -12 19 -20 25 -18 6 2 -18 34 -52 71 -64 68 -159 128 -201 128
-17 0 -18 -2 -6 -10z"/>
<path d="M3590 2630 c0 -5 5 -10 11 -10 5 0 7 5 4 10 -3 6 -8 10 -11 10 -2 0
-4 -4 -4 -10z"/>
<path d="M3275 2620 c27 -12 43 -12 25 0 -8 5 -22 9 -30 9 -10 0 -8 -3 5 -9z"/>
<path d="M3184 2595 c-19 -14 -19 -14 0 -15 16 0 13 -5 -15 -25 -63 -47 -119
-128 -135 -198 -3 -15 -14 -32 -24 -37 -13 -7 -19 -28 -24 -93 -4 -46 -15
-106 -26 -134 -15 -39 -17 -58 -9 -91 45 -200 176 -368 337 -431 48 -19 62
-20 224 -11 95 6 180 10 188 11 30 1 60 10 58 17 -5 16 36 102 48 102 10 0 9
-8 -5 -34 -11 -19 -17 -37 -13 -41 3 -3 0 -10 -8 -15 -13 -9 -13 -10 0 -10 8
0 28 14 43 30 16 17 34 30 41 30 18 0 46 33 46 53 0 9 4 17 9 17 10 0 22 57
26 124 2 47 -22 202 -36 228 -5 10 -9 27 -9 37 0 11 -4 23 -10 26 -13 8 -12
-7 4 -86 20 -92 31 -260 16 -236 -7 10 -9 25 -6 32 5 14 -10 125 -21 155 -3 8
-7 22 -9 30 -17 91 -38 122 -60 92 -15 -21 -23 -14 -28 24 -5 37 -33 103 -52
121 -12 13 -14 12 -14 -7 0 -11 7 -31 16 -45 8 -13 14 -29 13 -37 -2 -7 3 -24
11 -38 13 -24 15 -33 23 -96 2 -17 7 -36 11 -42 4 -7 9 -27 12 -45 2 -18 4
-39 5 -47 1 -8 1 -31 0 -50 -3 -33 -4 -33 -11 -10 -4 14 -8 42 -9 62 -2 67
-64 272 -114 378 -23 47 -85 150 -91 150 -2 0 -7 -8 -10 -17 -4 -10 -4 -14 0
-10 9 9 47 -47 65 -97 11 -31 11 -40 2 -43 -10 -4 -9 -8 1 -19 8 -8 19 -14 25
-14 14 0 14 -13 0 -27 -8 -8 -7 -17 5 -34 9 -13 16 -33 16 -44 0 -11 7 -29 15
-39 8 -10 12 -23 9 -27 -3 -5 3 -39 12 -76 25 -95 25 -312 1 -367 -24 -54 -28
-42 -11 29 16 69 19 144 5 130 -5 -6 -12 -39 -15 -75 -3 -36 -10 -76 -16 -90
-8 -20 -9 -11 -4 40 13 125 2 286 -23 333 -8 16 -12 31 -9 34 3 3 1 14 -5 25
-6 11 -13 32 -15 46 -3 15 -9 31 -13 37 -4 5 -13 29 -21 53 -7 23 -19 47 -27
53 -7 6 -13 19 -13 28 -1 9 -12 34 -25 56 -14 22 -29 49 -34 60 -5 11 -23 36
-40 54 -17 18 -31 36 -31 39 0 11 -84 85 -119 104 -46 26 -102 32 -127 13z
m636 -811 c0 -8 -4 -12 -10 -9 -5 3 -10 13 -10 21 0 8 5 12 10 9 6 -3 10 -13
10 -21z m87 -16 c-3 -8 -6 -5 -6 6 -1 11 2 17 5 13 3 -3 4 -12 1 -19z m-87
-25 c0 -5 -5 -15 -10 -23 -8 -12 -10 -11 -10 8 0 12 5 22 10 22 6 0 10 -3 10
-7z m77 -35 c-3 -8 -6 -5 -6 6 -1 11 2 17 5 13 3 -3 4 -12 1 -19z m-7 -22 c0
-3 -4 -8 -10 -11 -5 -3 -10 -1 -10 4 0 6 5 11 10 11 6 0 10 -2 10 -4z"/>
<path d="M3320 2600 c0 -5 5 -10 10 -10 6 0 10 5 10 10 0 6 -4 10 -10 10 -5 0
-10 -4 -10 -10z"/>
<path d="M3630 2591 c0 -6 4 -13 10 -16 6 -3 7 1 4 9 -7 18 -14 21 -14 7z"/>
<path d="M3360 2585 c0 -9 42 -47 47 -42 2 3 -5 15 -16 26 -21 21 -31 26 -31
16z"/>
<path d="M3671 2544 c0 -11 3 -14 6 -6 3 7 2 16 -1 19 -3 4 -6 -2 -5 -13z"/>
<path d="M3430 2520 c0 -5 5 -10 11 -10 5 0 7 5 4 10 -3 6 -8 10 -11 10 -2 0
-4 -4 -4 -10z"/>
<path d="M3460 2480 c0 -6 7 -10 15 -10 8 0 15 2 15 4 0 2 -7 6 -15 10 -8 3
-15 1 -15 -4z"/>
<path d="M3490 2440 c0 -6 7 -13 15 -16 8 -4 15 -14 15 -24 0 -15 18 -30 35
-30 2 0 -8 18 -22 40 -26 39 -43 51 -43 30z"/>
<path d="M3762 2430 c0 -14 2 -19 5 -12 2 6 2 18 0 25 -3 6 -5 1 -5 -13z"/>
<path d="M3782 2367 c6 -12 15 -29 20 -37 4 -8 15 -28 23 -45 l14 -30 1 27 c0
17 -7 31 -20 38 -11 6 -19 14 -19 18 4 22 -3 41 -16 46 -12 4 -13 2 -3 -17z"/>
<path d="M3552 2339 c2 -7 10 -15 17 -17 8 -3 12 1 9 9 -2 7 -10 15 -17 17 -8
3 -12 -1 -9 -9z"/>
<path d="M3690 2323 c0 -15 19 -37 26 -31 3 4 -1 14 -10 23 -9 9 -16 13 -16 8z"/>
<path d="M3580 2285 c0 -3 7 -17 16 -30 9 -13 13 -28 10 -33 -3 -6 1 -15 9
-22 8 -7 15 -23 15 -35 0 -12 7 -28 15 -35 20 -17 20 1 -1 48 -21 48 -31 73
-38 95 -5 15 -26 25 -26 12z"/>
<path d="M3780 2245 c-10 -12 -10 -21 1 -47 8 -18 13 -37 11 -41 -1 -5 7 -7
19 -5 29 4 33 19 14 43 -13 17 -16 18 -24 5 -8 -11 -10 -9 -7 11 1 13 6 30 10
37 10 17 -9 15 -24 -3z"/>
<path d="M3846 2228 c15 -49 25 -71 30 -65 8 8 -18 87 -28 87 -5 0 -6 -10 -2
-22z"/>
<path d="M3951 2193 c7 -10 15 -20 16 -22 2 -2 3 3 3 11 0 9 -7 19 -16 22 -15
6 -15 4 -3 -11z"/>
<path d="M3910 2171 c0 -5 5 -13 10 -16 6 -3 10 -2 10 4 0 5 -4 13 -10 16 -5
3 -10 2 -10 -4z"/>
<path d="M3980 2160 c0 -5 -7 -7 -15 -4 -18 7 -20 -12 -2 -23 6 -4 13 -30 14
-58 7 -194 7 -254 0 -280 l-7 -30 24 30 c40 47 59 112 61 203 l2 83 -31 -3
c-30 -3 -30 -2 -31 44 0 27 -3 48 -7 48 -5 0 -8 -4 -8 -10z"/>
<path d="M3657 2098 c-2 -8 1 -22 9 -33 8 -10 12 -26 9 -36 -3 -9 2 -22 10
-29 14 -12 15 -8 9 31 -8 51 -28 88 -37 67z"/>
<path d="M4735 2050 c-4 -6 7 -10 25 -10 18 0 29 4 25 10 -3 6 -15 10 -25 10
-10 0 -22 -4 -25 -10z"/>
<path d="M3697 1954 c-3 -4 -2 -15 4 -25 5 -11 9 -25 8 -32 -3 -25 1 -50 8
-43 9 9 4 89 -6 99 -4 4 -10 4 -14 1z"/>
<path d="M6085 1869 l-30 -6 28 -8 c28 -8 42 -3 36 12 -2 5 -17 6 -34 2z"/>
<path d="M3714 1829 c-3 -6 -1 -16 5 -22 8 -8 11 -5 11 11 0 24 -5 28 -16 11z"/>
<path d="M509 1585 c-54 -29 -72 -118 -29 -148 9 -6 20 -22 24 -35 9 -26 36
-23 71 8 11 10 39 20 62 23 l42 5 14 -46 c12 -45 14 -47 51 -49 21 0 42 -7 47
-15 6 -9 30 -13 76 -13 59 0 69 -3 78 -21 8 -17 13 -19 22 -9 7 7 10 14 9 16
-2 2 -6 35 -9 72 -6 62 -5 66 9 52 9 -9 17 -26 18 -40 0 -13 3 -22 5 -19 2 2
17 -12 34 -31 16 -19 33 -35 38 -35 16 0 15 36 -3 73 -11 22 -17 41 -14 44 6
7 41 -27 55 -54 19 -37 28 -26 23 27 -2 28 -2 50 1 50 12 0 37 -59 31 -73 -3
-8 -1 -18 4 -21 6 -3 13 1 16 10 5 13 9 14 20 5 21 -18 32 6 12 28 -17 19 -22
36 -7 27 12 -8 41 38 41 64 0 18 -7 20 -57 21 -32 0 -106 1 -165 2 -99 2 -107
0 -102 -15 3 -10 1 -18 -5 -18 -6 0 -11 9 -11 19 0 23 -38 34 -110 30 -42 -2
-54 1 -79 24 -61 54 -156 73 -212 42z m591 -161 c0 -8 -4 -12 -10 -9 -5 3 -10
10 -10 16 0 5 5 9 10 9 6 0 10 -7 10 -16z"/>
<path d="M2930 1508 c-19 -5 -146 -9 -282 -9 -226 0 -248 -2 -248 -17 -1 -15
-2 -15 -11 1 -6 9 -14 15 -19 12 -30 -19 -208 -31 -334 -23 -251 14 -464 19
-471 9 -3 -6 5 -17 19 -26 26 -17 40 -54 30 -79 -8 -21 -34 -2 -34 25 0 28
-19 33 -29 7 -13 -37 -24 -218 -12 -218 16 0 61 65 61 88 0 11 4 23 9 27 19
11 19 -12 0 -54 -23 -52 -23 -52 -2 -44 14 5 15 1 10 -30 -6 -39 5 -49 22 -19
9 15 11 15 21 -8 9 -22 10 -19 5 18 -5 41 7 58 19 26 13 -35 1 -102 -18 -92
-7 3 -36 -48 -36 -64 0 -5 11 -24 25 -42 22 -29 23 -35 10 -46 -21 -17 -19
-30 5 -30 20 0 25 17 21 63 -1 9 4 20 12 23 9 3 18 17 21 30 4 14 11 22 16 19
5 -3 7 -12 4 -20 -7 -18 36 -58 65 -60 29 -2 27 5 -14 44 -20 18 -33 36 -31
39 3 3 20 -10 37 -29 17 -19 33 -29 35 -23 3 6 11 20 19 30 12 15 14 16 15 3
0 -8 -6 -24 -14 -34 -8 -11 -12 -25 -9 -32 3 -7 0 -13 -6 -13 -6 0 -11 -7 -11
-15 0 -8 5 -15 10 -15 6 0 10 7 10 15 0 9 9 15 21 15 12 0 28 8 35 18 11 15
13 13 12 -16 -1 -18 1 -34 4 -37 6 -6 58 18 58 26 0 10 -28 70 -51 108 -11 18
-17 41 -14 49 4 12 14 0 34 -38 53 -104 75 -140 83 -140 12 0 10 18 -3 22 -7
2 -10 11 -7 19 4 10 12 6 34 -17 38 -40 64 -50 64 -24 0 10 -6 25 -14 32 -18
18 -46 74 -46 90 1 7 8 0 16 -15 17 -31 34 -28 34 6 1 16 6 11 22 -20 26 -55
42 -56 33 -3 -4 26 -3 40 4 40 6 0 11 -5 11 -11 0 -5 5 -7 10 -4 6 3 10 -1 10
-9 0 -9 5 -16 10 -16 6 0 10 -7 10 -16 0 -8 5 -12 11 -8 8 4 8 9 0 17 -17 17
-13 31 5 16 15 -12 16 -11 10 9 -7 22 -6 22 13 10 12 -7 21 -16 21 -20 0 -5 7
-8 15 -8 9 0 15 9 15 23 1 22 1 22 16 2 12 -16 18 -18 34 -7 10 6 26 9 34 6
11 -4 19 8 31 50 21 70 31 77 38 23 3 -23 9 -59 13 -80 6 -34 5 -38 -12 -35
-14 2 -20 -4 -22 -20 -4 -26 4 -26 76 4 31 13 44 45 23 59 -5 3 -12 19 -16 35
-4 17 -13 37 -22 45 -8 8 -13 20 -11 27 5 15 58 -42 58 -63 0 -10 11 -20 25
-23 21 -5 25 -12 25 -42 0 -19 -4 -43 -9 -52 -12 -24 6 -80 29 -92 16 -9 22
-7 27 7 9 23 8 82 -1 109 -5 14 -2 26 8 37 9 8 16 25 16 36 0 35 14 23 38 -32
23 -50 24 -51 35 -29 8 18 8 25 -4 32 -10 7 -11 12 -3 20 8 8 8 29 -1 76 -9
50 -9 64 0 64 7 0 19 -34 29 -80 10 -44 22 -82 27 -86 5 -3 9 -16 9 -29 0 -13
4 -26 8 -29 4 -2 9 -22 10 -43 3 -37 16 -62 27 -51 3 3 0 17 -6 31 -24 54 14
77 53 32 12 -14 28 -23 38 -20 11 3 25 -13 49 -58 19 -34 42 -72 52 -85 l17
-23 21 30 c12 16 21 43 21 60 0 31 24 45 33 19 6 -19 37 9 37 33 0 18 -11 24
-34 20 -13 -3 -26 20 -25 44 0 11 3 14 6 7 2 -6 8 -10 13 -7 4 2 19 -6 32 -18
l25 -23 32 28 c17 15 36 28 41 28 9 0 30 -61 30 -87 0 -7 8 -13 19 -13 21 0
45 -25 37 -38 -3 -5 1 -17 8 -27 13 -18 15 -17 40 10 24 25 26 35 26 111 0 68
3 84 15 84 8 0 17 -12 21 -27 3 -16 10 -43 14 -60 5 -18 6 -47 3 -63 -5 -36
15 -70 28 -48 5 7 9 35 9 61 0 49 3 52 47 61 4 0 13 -17 19 -39 8 -30 16 -39
30 -37 11 1 31 3 46 4 15 0 25 5 22 10 -3 4 2 8 11 8 9 0 19 -9 22 -20 4 -16
14 -20 50 -20 50 0 83 -14 83 -35 0 -22 17 -18 23 5 7 26 23 26 37 0 6 -11 15
-20 21 -20 6 0 34 -16 63 -35 29 -19 55 -35 58 -35 8 0 2 138 -7 175 -7 29 -6
29 37 -16 23 -26 61 -67 83 -92 44 -51 55 -56 55 -28 0 28 16 34 39 15 13 -12
22 -36 27 -73 13 -112 38 -115 64 -9 12 50 20 65 45 78 24 13 29 22 27 43 -2
19 1 27 12 27 9 0 16 -4 16 -9 0 -5 10 -11 23 -13 19 -3 22 -10 25 -55 2 -42
8 -56 29 -73 14 -11 31 -20 38 -20 20 0 27 31 11 49 -32 36 -31 119 1 107 16
-7 43 10 43 25 0 5 -9 9 -19 9 -11 0 -23 5 -26 10 -8 12 -3 13 29 0 14 -5 26
-6 26 -1 0 5 11 11 25 13 25 5 30 -3 27 -44 -1 -10 3 -18 9 -18 5 0 8 -3 5 -8
-8 -13 20 -42 44 -44 27 -4 57 33 66 80 6 28 4 32 -14 32 -32 0 -36 19 -6 26
35 9 57 -6 65 -42 5 -20 7 -22 8 -9 2 19 2 19 12 2 6 -10 8 -23 6 -30 -5 -13
50 -67 68 -67 6 0 18 15 26 33 8 17 20 31 26 30 8 -2 11 12 10 38 -1 23 -3 35
-6 28 -2 -7 -9 -3 -17 12 -12 22 -13 22 -14 4 0 -12 5 -26 12 -33 7 -7 8 -12
2 -12 -6 0 -26 16 -44 35 -28 29 -32 38 -20 45 8 5 21 5 31 -1 13 -6 20 -5 26
6 6 10 27 16 62 17 33 2 55 7 58 15 4 10 16 12 42 7 40 -8 52 -19 44 -43 -3
-9 -7 -22 -9 -30 -4 -11 -7 -11 -21 0 -15 12 -16 12 -10 -4 4 -10 7 -20 7 -22
0 -7 46 9 52 19 4 6 8 23 8 39 0 17 5 27 15 27 8 0 15 9 15 20 0 15 13 26 47
41 26 11 49 22 51 24 6 5 -31 65 -40 65 -4 0 -8 -6 -8 -14 0 -13 -20 -26 -39
-26 -5 0 -7 21 -5 46 3 40 2 44 -11 34 -11 -9 -12 -16 -4 -26 13 -15 4 -34
-16 -34 -9 0 -12 6 -9 15 4 9 0 15 -10 15 -8 0 -20 9 -26 20 -12 22 -45 27
-56 9 -4 -7 -15 -2 -31 16 -28 30 -45 23 -45 -19 0 -24 -1 -25 -27 -8 -14 9
-32 22 -38 28 -7 7 -22 10 -33 7 -15 -4 -20 0 -20 16 0 25 -8 26 -34 6 -11 -8
-29 -15 -40 -15 -16 0 -17 -3 -8 -12 28 -28 13 -37 -52 -31 -58 5 -65 4 -75
-16 -7 -11 -21 -21 -33 -21 -17 0 -20 4 -15 29 5 21 0 34 -17 50 -27 25 -49
27 -67 4 -12 -15 -12 -16 1 -8 8 4 4 -4 -10 -19 -32 -35 -64 -32 -68 8 -4 29
-4 29 -62 23 -47 -4 -58 -2 -53 9 3 8 -4 15 -19 18 -12 3 -35 7 -50 11 -18 3
-30 14 -34 30 -6 23 -43 55 -64 55 -26 0 -119 52 -114 64 8 20 -45 66 -77 66
-15 0 -38 4 -51 9 -13 4 -54 12 -91 16 l-68 7 -40 -42 c-41 -43 -63 -45 -53
-5 6 24 6 24 -83 25 -48 1 -97 2 -108 2 -23 1 -230 -12 -290 -18 -44 -4 -225
-7 -294 -5 l-43 2 22 24 c12 13 38 28 59 33 20 6 27 10 16 10 -11 0 -36 -4
-55 -10z m-407 -35 c-18 -2 -48 -2 -65 0 -18 2 -4 4 32 4 36 0 50 -2 33 -4z
m-713 -98 c0 -17 -2 -17 -10 -5 -5 8 -10 24 -10 35 0 17 2 17 10 5 5 -8 10
-24 10 -35z m675 -142 c-8 -36 -23 -51 -20 -21 1 13 3 29 4 36 0 6 6 12 12 12
7 0 9 -10 4 -27z m-671 -53 c4 -31 3 -40 -4 -30 -5 8 -10 30 -10 49 0 45 6 37
14 -19z m-70 4 c3 -8 2 -12 -4 -9 -6 3 -10 10 -10 16 0 14 7 11 14 -7z m312
-41 c-10 -10 -19 5 -10 18 6 11 8 11 12 0 2 -7 1 -15 -2 -18z m2826 -20 c25
-23 23 -43 -6 -43 -26 0 -39 20 -30 45 8 19 13 19 36 -2z m-3125 -25 c-3 -8
-6 -5 -6 6 -1 11 2 17 5 13 3 -3 4 -12 1 -19z m3503 -28 c0 -5 -2 -10 -4 -10
-3 0 -8 5 -11 10 -3 6 -1 10 4 10 6 0 11 -4 11 -10z m-387 -176 c15 -14 25
-30 22 -35 -8 -12 -25 -2 -25 16 0 7 -9 17 -20 20 -11 3 -20 11 -20 16 0 15
14 10 43 -17z m-158 -4 c4 -6 1 -17 -5 -26 -14 -16 -40 -2 -40 22 0 16 36 19
45 4z m175 -60 c0 -5 -5 -10 -11 -10 -5 0 -7 5 -4 10 3 6 8 10 11 10 2 0 4 -4
4 -10z m-555 -29 c0 -16 -8 -27 -23 -32 -19 -7 -24 -5 -31 14 -12 32 -2 49 28
45 20 -2 26 -9 26 -27z"/>
<path d="M1261 1454 c-36 -52 -38 -65 -13 -80 14 -9 44 -90 47 -126 0 -3 3
-10 8 -14 4 -4 7 -16 7 -26 0 -21 18 -23 43 -4 27 21 20 64 -25 153 -23 45
-39 85 -35 89 14 14 39 -8 59 -53 11 -27 29 -59 38 -73 10 -14 19 -34 21 -45
3 -11 12 -20 21 -20 9 0 26 -9 38 -20 29 -26 40 -8 40 68 0 31 4 57 9 57 5 0
12 19 16 43 15 80 15 81 -38 91 -35 7 -54 6 -67 -2 -12 -7 -21 -8 -25 -2 -3 6
-30 10 -60 10 -52 0 -54 -1 -84 -46z m164 6 c3 -5 1 -10 -4 -10 -6 0 -11 5
-11 10 0 6 2 10 4 10 3 0 8 -4 11 -10z m72 -142 c-3 -8 -6 -5 -6 6 -1 11 2 17
5 13 3 -3 4 -12 1 -19z m-157 -98 c-1 -12 -4 -11 -15 4 -8 10 -12 23 -8 29 7
11 23 -12 23 -33z"/>
<path d="M1174 1297 c4 -45 15 -64 27 -46 6 10 9 6 9 -13 0 -15 5 -30 10 -33
16 -10 12 51 -5 65 -8 7 -15 18 -15 25 0 7 -7 18 -15 25 -12 10 -14 7 -11 -23z"/>
<path d="M642 1295 c0 -16 2 -22 5 -12 2 9 2 23 0 30 -3 6 -5 -1 -5 -18z"/>
<path d="M1250 1294 c0 -8 5 -12 10 -9 6 3 10 10 10 16 0 5 -4 9 -10 9 -5 0
-10 -7 -10 -16z"/>
<path d="M4927 1283 c-4 -3 -2 -12 4 -20 6 -7 9 -13 5 -13 -4 0 1 -14 9 -30 9
-17 20 -28 25 -25 13 8 13 45 0 45 -5 0 -10 6 -10 14 0 17 -24 38 -33 29z"/>
<path d="M69 1263 c-1 -10 -1 -24 0 -30 1 -7 -7 -13 -18 -13 -11 0 -22 6 -24
13 -3 6 -6 0 -6 -15 -1 -16 4 -28 10 -28 8 0 8 -4 0 -14 -9 -11 -7 -15 9 -19
16 -4 20 0 20 20 0 13 4 21 10 18 6 -3 10 4 10 17 0 13 3 33 6 46 4 13 2 22
-5 22 -6 0 -12 -8 -12 -17z"/>
<path d="M4830 1270 c0 -5 5 -10 11 -10 5 0 7 5 4 10 -3 6 -8 10 -11 10 -2 0
-4 -4 -4 -10z"/>
<path d="M277 1256 c-6 -15 1 -26 15 -26 4 0 8 9 8 20 0 23 -15 27 -23 6z"/>
<path d="M741 1244 c0 -11 3 -14 6 -6 3 7 2 16 -1 19 -3 4 -6 -2 -5 -13z"/>
<path d="M840 1250 c0 -5 5 -10 10 -10 6 0 10 5 10 10 0 6 -4 10 -10 10 -5 0
-10 -4 -10 -10z"/>
<path d="M130 1240 c0 -5 5 -10 10 -10 6 0 10 5 10 10 0 6 -4 10 -10 10 -5 0
-10 -4 -10 -10z"/>
<path d="M937 1244 c-4 -4 -7 -14 -7 -23 0 -11 3 -12 11 -4 6 6 10 16 7 23 -2
6 -7 8 -11 4z"/>
<path d="M490 1227 c0 -7 5 -18 12 -25 6 -6 8 -15 4 -19 -4 -4 -12 -1 -17 7
-8 12 -10 12 -7 1 2 -8 14 -18 27 -23 20 -7 22 -6 16 9 -4 10 -7 28 -6 41 0
13 -5 22 -14 22 -8 0 -15 -6 -15 -13z"/>
<path d="M557 1233 c-3 -5 -1 -17 4 -28 7 -17 8 -17 8 8 1 27 -4 34 -12 20z"/>
<path d="M343 1195 c0 -22 2 -30 4 -17 2 12 2 30 0 40 -3 9 -5 -1 -4 -23z"/>
<path d="M290 1213 c0 -4 5 -15 10 -23 8 -13 10 -13 10 2 0 9 -4 20 -10 23 -5
3 -10 3 -10 -2z"/>
<path d="M831 1204 c0 -11 3 -14 6 -6 3 7 2 16 -1 19 -3 4 -6 -2 -5 -13z"/>
<path d="M802 1170 c-2 -33 -5 -41 -12 -30 -5 8 -10 12 -10 7 0 -4 5 -15 11
-25 9 -14 7 -29 -5 -65 -9 -26 -16 -57 -16 -67 0 -23 19 -27 21 -5 2 18 4 26
13 46 4 9 5 54 3 100 -1 46 -4 64 -5 39z"/>
<path d="M906 1201 c-4 -7 -5 -15 -2 -18 9 -9 19 4 14 18 -4 11 -6 11 -12 0z"/>
<path d="M5130 1200 c0 -5 5 -10 10 -10 6 0 10 5 10 10 0 6 -4 10 -10 10 -5 0
-10 -4 -10 -10z"/>
<path d="M688 1195 c-3 -4 -2 -19 2 -35 5 -16 6 -39 3 -51 -4 -15 -3 -20 5
-15 7 4 12 20 12 37 0 18 5 29 14 29 8 0 16 7 20 15 3 9 0 15 -8 15 -8 0 -21
2 -28 5 -8 3 -17 3 -20 0z"/>
<path d="M891 1154 c0 -11 3 -14 6 -6 3 7 2 16 -1 19 -3 4 -6 -2 -5 -13z"/>
<path d="M1220 1163 c0 -4 5 -15 10 -23 8 -13 10 -13 10 2 0 9 -4 20 -10 23
-5 3 -10 3 -10 -2z"/>
<path d="M1435 1160 c3 -5 8 -10 11 -10 2 0 4 5 4 10 0 6 -5 10 -11 10 -5 0
-7 -4 -4 -10z"/>
<path d="M1260 1131 c0 -17 5 -33 10 -36 6 -4 10 8 10 29 0 20 -4 36 -10 36
-5 0 -10 -13 -10 -29z"/>
<path d="M670 1136 c0 -9 5 -16 10 -16 6 0 10 4 10 9 0 6 -4 13 -10 16 -5 3
-10 -1 -10 -9z"/>
<path d="M1492 1130 c0 -14 2 -19 5 -12 2 6 2 18 0 25 -3 6 -5 1 -5 -13z"/>
<path d="M193 1133 c-18 -6 -16 -43 2 -43 8 0 19 10 26 21 6 13 7 19 1 15 -6
-3 -12 -2 -14 2 -1 5 -9 7 -15 5z"/>
<path d="M5451 1124 c0 -11 3 -14 6 -6 3 7 2 16 -1 19 -3 4 -6 -2 -5 -13z"/>
<path d="M6 1111 c-5 -13 -4 -27 3 -34 17 -17 24 -1 14 30 l-10 28 -7 -24z"/>
<path d="M1061 1114 c0 -11 3 -14 6 -6 3 7 2 16 -1 19 -3 4 -6 -2 -5 -13z"/>
<path d="M291 1103 c-1 -12 4 -25 9 -28 12 -7 12 2 0 30 -8 19 -9 19 -9 -2z"/>
<path d="M1310 1101 c0 -12 5 -21 10 -21 6 0 10 6 10 14 0 8 -4 18 -10 21 -5
3 -10 -3 -10 -14z"/>
<path d="M5490 1108 c0 -10 4 -18 8 -18 11 0 39 -64 48 -110 6 -31 5 -33 -9
-22 -14 12 -15 11 -4 -12 12 -25 12 -25 28 22 9 26 20 58 24 72 l8 25 -21 -25
-20 -25 -15 35 c-8 19 -22 44 -31 55 -14 18 -15 18 -16 3z"/>
<path d="M425 1090 c-4 -6 -11 -8 -16 -5 -5 3 -6 -1 -3 -9 3 -9 1 -16 -5 -16
-6 0 -11 -9 -11 -21 0 -19 3 -18 30 11 17 18 30 36 30 41 0 12 -17 11 -25 -1z"/>
<path d="M547 1085 c3 -8 14 -15 24 -15 11 0 22 -7 25 -15 4 -8 14 -15 23 -15
9 0 22 -5 29 -12 7 -7 12 -8 12 -3 0 12 -55 50 -92 64 -22 8 -26 8 -21 -4z"/>
<path d="M5455 1090 c-3 -6 0 -17 9 -25 20 -20 25 -19 19 5 -7 25 -19 34 -28
20z"/>
<path d="M1333 1073 c-20 -7 -15 -19 7 -20 11 -1 20 4 20 13 0 14 -6 16 -27 7z"/>
<path d="M5794 1049 c-19 -22 -19 -22 4 -10 12 6 22 16 22 21 0 15 -5 12 -26
-11z"/>
<path d="M5952 1050 c0 -14 2 -19 5 -12 2 6 2 18 0 25 -3 6 -5 1 -5 -13z"/>
<path d="M67 1054 c-8 -8 3 -34 14 -34 5 0 9 9 9 20 0 19 -11 26 -23 14z"/>
<path d="M275 1047 c-4 -10 -5 -20 -2 -23 7 -7 47 18 47 30 0 4 -6 3 -14 -3
-11 -9 -15 -9 -19 1 -3 9 -7 8 -12 -5z"/>
<path d="M5877 1046 c-3 -8 -2 -18 4 -22 16 -9 22 2 11 21 -8 15 -10 16 -15 1z"/>
<path d="M1388 1030 c7 -19 23 -40 31 -40 3 0 7 13 8 29 2 24 -2 29 -21 27
-16 -1 -22 -6 -18 -16z"/>
<path d="M880 1021 c0 -11 4 -21 9 -21 18 0 21 18 6 30 -13 10 -15 9 -15 -9z"/>
<path d="M5703 1023 c-7 -2 -13 -11 -13 -19 0 -8 -7 -14 -15 -14 -13 0 -13 -3
-3 -20 9 -13 14 -16 17 -8 2 7 7 15 11 18 7 5 24 51 18 49 -2 0 -9 -3 -15 -6z"/>
<path d="M1500 1008 c0 -8 7 -23 15 -34 15 -18 15 -18 13 10 -3 29 -28 50 -28
24z"/>
<path d="M5430 1011 c0 -5 5 -13 10 -16 6 -3 10 -2 10 4 0 5 -4 13 -10 16 -5
3 -10 2 -10 -4z"/>
<path d="M850 1000 c0 -6 -5 -8 -10 -5 -6 4 -3 -11 5 -33 15 -37 15 -43 -1
-78 -24 -53 -23 -58 11 -64 17 -4 29 -11 28 -18 -2 -6 3 -9 11 -6 7 3 16 -2
20 -11 11 -29 24 -6 32 53 4 32 14 62 22 68 13 9 12 13 -7 26 -13 9 -19 21
-16 31 11 26 -14 29 -27 3 -14 -31 -38 -34 -38 -5 0 11 -7 27 -15 35 -9 9 -15
11 -15 4z"/>
<path d="M2321 994 c0 -11 3 -14 6 -6 3 7 2 16 -1 19 -3 4 -6 -2 -5 -13z"/>
<path d="M650 985 c0 -8 4 -15 10 -15 5 0 7 7 4 15 -4 8 -8 15 -10 15 -2 0 -4
-7 -4 -15z"/>
<path d="M1646 975 c4 -8 11 -15 16 -15 6 0 5 6 -2 15 -7 8 -14 15 -16 15 -2
0 -1 -7 2 -15z"/>
<path d="M5988 940 c2 -28 8 -50 14 -50 6 0 7 16 3 43 -10 60 -21 65 -17 7z"/>
<path d="M5280 971 c0 -6 5 -13 10 -16 6 -3 10 1 10 9 0 9 -4 16 -10 16 -5 0
-10 -4 -10 -9z"/>
<path d="M661 944 c0 -11 3 -14 6 -6 3 7 2 16 -1 19 -3 4 -6 -2 -5 -13z"/>
<path d="M2160 945 c0 -8 5 -15 10 -15 6 0 10 7 10 15 0 8 -4 15 -10 15 -5 0
-10 -7 -10 -15z"/>
<path d="M2676 928 c-3 -19 -4 -43 0 -52 3 -9 1 -16 -6 -16 -7 0 -5 -6 5 -16
19 -19 45 -11 44 13 0 10 -8 38 -18 62 l-18 45 -7 -36z"/>
<path d="M4998 937 c4 -14 7 -16 13 -5 12 19 11 25 -5 25 -8 0 -11 -8 -8 -20z"/>
<path d="M5645 951 c-3 -5 -1 -12 5 -16 5 -3 10 1 10 9 0 18 -6 21 -15 7z"/>
<path d="M5746 945 c4 -8 8 -15 10 -15 2 0 4 7 4 15 0 8 -4 15 -10 15 -5 0 -7
-7 -4 -15z"/>
<path d="M5377 936 c-4 -10 -5 -21 -2 -24 9 -9 17 6 13 25 -3 17 -4 17 -11 -1z"/>
<path d="M1601 914 c0 -11 3 -14 6 -6 3 7 2 16 -1 19 -3 4 -6 -2 -5 -13z"/>
<path d="M2494 919 c-3 -6 -2 -15 4 -21 7 -7 14 -3 21 11 10 17 9 21 -3 21 -8
0 -18 -5 -22 -11z"/>
<path d="M5940 916 c0 -8 4 -17 9 -20 5 -4 7 3 4 14 -6 23 -13 26 -13 6z"/>
<path d="M6070 921 c-17 -7 -25 -51 -10 -51 6 0 10 4 10 9 0 5 7 16 15 25 17
16 8 27 -15 17z"/>
<path d="M2180 894 c0 -12 7 -27 15 -34 20 -17 21 9 0 36 -14 19 -14 19 -15
-2z"/>
<path d="M5020 890 c13 -23 20 -26 20 -6 0 8 -7 16 -15 20 -13 4 -14 2 -5 -14z"/>
<path d="M5755 889 c5 -15 4 -19 -4 -15 -6 4 -11 2 -11 -4 0 -7 8 -9 20 -5 13
4 22 1 26 -9 9 -22 24 -20 24 3 0 19 -34 51 -53 51 -5 0 -5 -10 -2 -21z"/>
<path d="M2745 890 c3 -5 8 -10 11 -10 2 0 4 5 4 10 0 6 -5 10 -11 10 -5 0 -7
-4 -4 -10z"/>
<path d="M5190 884 c0 -8 5 -12 10 -9 6 3 10 10 10 16 0 5 -4 9 -10 9 -5 0
-10 -7 -10 -16z"/>
<path d="M6080 866 c0 -31 6 -34 13 -6 3 11 1 23 -4 26 -5 3 -9 -6 -9 -20z"/>
<path d="M5641 864 c0 -11 3 -14 6 -6 3 7 2 16 -1 19 -3 4 -6 -2 -5 -13z"/>
<path d="M5867 858 c-8 -28 -7 -29 22 -1 23 22 23 23 4 23 -13 0 -23 -8 -26
-22z"/>
<path d="M2075 845 c0 -13 4 -21 8 -18 4 3 14 0 21 -6 10 -9 15 -7 19 8 3 14
1 18 -9 14 -8 -3 -14 -1 -14 5 0 5 -6 12 -12 15 -8 3 -13 -4 -13 -18z"/>
<path d="M5973 835 c7 -13 14 -20 15 -14 5 14 -6 39 -17 39 -5 0 -4 -11 2 -25z"/>
<path d="M6020 840 c0 -19 11 -26 23 -14 8 8 -3 34 -14 34 -5 0 -9 -9 -9 -20z"/>
<path d="M5740 841 c0 -5 5 -13 10 -16 6 -3 10 -2 10 4 0 5 -4 13 -10 16 -5 3
-10 2 -10 -4z"/>
<path d="M5160 831 c0 -6 5 -13 10 -16 6 -3 10 1 10 9 0 9 -4 16 -10 16 -5 0
-10 -4 -10 -9z"/>
<path d="M4573 788 c13 -33 37 -50 37 -26 0 18 -28 58 -41 58 -5 0 -3 -14 4
-32z"/>
<path d="M5714 778 c-1 -20 2 -25 10 -19 8 7 17 -2 29 -30 12 -28 23 -39 35
-37 19 4 30 48 12 48 -6 0 -17 14 -24 32 -18 43 -60 47 -62 6z"/>
<path d="M486 763 c-8 -27 -4 -93 7 -100 5 -3 14 0 20 6 6 6 19 11 29 11 22 0
22 0 3 36 -8 16 -15 37 -15 47 0 10 -8 17 -19 17 -11 0 -22 -8 -25 -17z"/>
<path d="M5677 773 c-4 -3 -7 -11 -7 -17 0 -6 5 -5 12 2 6 6 9 14 7 17 -3 3
-9 2 -12 -2z"/>
<path d="M3482 730 c-12 -22 -27 -40 -32 -40 -18 0 -50 -40 -50 -62 0 -21 34
-88 44 -88 14 0 58 100 58 133 -1 31 4 40 24 49 29 13 28 42 -1 46 -14 2 -27
-9 -43 -38z"/>
<path d="M3853 735 c-3 -9 1 -32 10 -51 9 -18 14 -40 11 -49 -4 -9 3 -19 20
-26 30 -14 42 -7 31 18 -11 27 -16 71 -6 54 6 -10 10 -10 16 -1 4 6 5 12 4 14
-2 1 -21 14 -42 29 -32 25 -38 26 -44 12z"/>
<path d="M5581 741 c-12 -8 -12 -15 3 -45 9 -20 21 -36 26 -36 16 0 11 50 -4
56 -8 3 -12 12 -9 20 6 16 3 17 -16 5z"/>
<path d="M5301 714 c0 -11 3 -14 6 -6 3 7 2 16 -1 19 -3 4 -6 -2 -5 -13z"/>
<path d="M768 670 c-7 -24 -3 -38 8 -28 3 4 4 17 2 30 l-3 23 -7 -25z"/>
<path d="M5716 671 c-4 -5 -2 -12 3 -15 5 -4 12 -2 15 3 4 5 2 12 -3 15 -5 4
-12 2 -15 -3z"/>
<path d="M4513 583 c-35 -7 -48 -29 -34 -59 13 -30 14 -74 2 -106 -22 -58 48
-129 117 -119 10 1 40 67 43 91 4 39 -3 58 -25 68 -17 7 -29 25 -37 54 -7 24
-12 47 -10 52 2 9 -19 27 -29 24 -3 0 -15 -3 -27 -5z"/>
<path d="M3063 538 c-18 -24 -42 -56 -54 -72 -21 -26 -21 -31 -8 -53 8 -14 29
-31 47 -39 l33 -13 20 47 c11 26 20 54 20 62 0 16 -21 110 -25 110 -1 0 -16
-19 -33 -42z"/>
<path d="M4390 545 c-6 -8 -9 -19 -5 -25 8 -13 42 -13 50 0 7 11 -12 40 -25
40 -4 0 -13 -7 -20 -15z"/>
<path d="M5445 537 c-10 -38 11 -77 40 -77 31 0 65 16 65 31 0 6 -10 9 -22 7
-18 -2 -27 5 -38 29 -18 38 -37 42 -45 10z"/>
<path d="M1157 513 c-5 -9 -10 -49 -8 -74 1 -22 82 -54 93 -36 18 28 -2 92
-31 100 -9 3 -23 8 -32 12 -10 3 -19 3 -22 -2z"/>
<path d="M5652 455 c-23 -29 -30 -99 -12 -110 6 -3 10 -13 10 -22 0 -8 7 -30
16 -49 13 -27 19 -32 30 -23 11 9 18 6 32 -11 15 -18 24 -21 49 -16 42 10 33
39 -21 67 -52 27 -56 34 -54 89 0 25 -6 58 -14 74 l-15 28 -21 -27z"/>
<path d="M3781 434 c0 -11 3 -14 6 -6 3 7 2 16 -1 19 -3 4 -6 -2 -5 -13z"/>
<path d="M2246 414 c-22 -22 -20 -31 15 -63 27 -25 29 -30 18 -54 -7 -15 -17
-27 -23 -27 -18 0 -45 -54 -55 -107 -8 -42 -6 -52 15 -89 13 -22 24 -48 24
-57 0 -15 19 -17 181 -17 163 0 180 2 169 16 -15 17 -14 123 1 138 5 6 9 45 9
87 l0 76 -67 33 c-38 18 -77 33 -88 32 -11 -1 -22 2 -25 6 -29 39 -145 56
-174 26z"/>
<path d="M3244 354 c2 -16 4 -39 5 -51 1 -17 7 -23 25 -23 14 0 37 -5 52 -10
15 -6 30 -7 33 -2 3 5 14 11 24 15 17 7 21 26 11 63 -5 18 -13 21 -47 21 -23
-1 -56 3 -74 7 -31 8 -32 7 -29 -20z"/>
<path d="M1859 323 c-18 -21 -18 -94 0 -157 12 -40 21 -51 50 -65 20 -9 37
-23 39 -31 7 -32 26 -42 66 -37 91 11 94 14 53 58 -29 31 -43 65 -65 154 -5
20 -20 37 -47 52 -22 12 -45 26 -52 32 -17 15 -28 14 -44 -6z"/>
<path d="M4805 280 c-26 -29 -27 -49 -4 -79 16 -20 19 -34 14 -67 -7 -47 1
-74 21 -74 16 0 16 8 5 68 -7 33 -4 55 9 92 25 70 -3 107 -45 60z"/>
<path d="M5030 211 c-33 -9 -41 -51 -11 -51 12 0 21 -6 21 -14 0 -17 27 -29
36 -15 3 6 15 9 25 6 23 -6 43 17 43 51 0 25 -3 27 -44 29 -25 1 -56 -2 -70
-6z"/>
<path d="M1597 114 c-15 -8 -32 -12 -36 -9 -5 3 -21 0 -35 -6 -22 -10 -26 -19
-26 -56 l0 -43 104 0 104 0 -8 34 c-10 46 -41 96 -60 96 -8 -1 -27 -8 -43 -16z"/>
<path d="M4953 60 c-8 -12 -9 -21 -3 -25 6 -3 10 -1 10 6 0 8 4 8 15 -1 8 -7
15 -19 15 -26 0 -8 4 -14 9 -14 6 0 9 18 8 40 -1 33 -5 40 -22 40 -11 0 -26
-9 -32 -20z"/>
<path d="M2672 37 c-28 -30 -28 -37 3 -37 21 0 25 5 25 30 0 36 -1 36 -28 7z"/>
<path d="M4492 13 c-14 -10 -9 -12 36 -13 40 0 52 3 52 15 0 19 -63 18 -88 -2z"/>
<path d="M4620 15 c-10 -12 -10 -15 4 -15 9 0 16 7 16 15 0 8 -2 15 -4 15 -2
0 -9 -7 -16 -15z"/>
</g>
</svg>
