<?xml version="1.0" standalone="no"?>
<!DOCTYPE svg PUBLIC "-//W3C//DTD SVG 20010904//EN"
 "http://www.w3.org/TR/2001/REC-SVG-20010904/DTD/svg10.dtd">
<svg version="1.0" xmlns="http://www.w3.org/2000/svg"
 width="1131.000000pt" height="1600.000000pt" viewBox="0 0 1131.000000 1600.000000"
 preserveAspectRatio="xMidYMid meet">

<g transform="translate(0.000000,1600.000000) scale(0.100000,-0.100000)"
fill="#000000" stroke="none">
<path d="M940 15985 c0 -8 0 -18 -1 -22 0 -4 4 -9 10 -11 6 -2 11 8 11 22 0
14 -4 26 -10 26 -5 0 -10 -7 -10 -15z"/>
<path d="M2080 15990 c0 -5 18 -10 40 -10 22 0 40 5 40 10 0 6 -18 10 -40 10
-22 0 -40 -4 -40 -10z"/>
<path d="M4867 15976 c10 -14 26 -28 36 -33 20 -9 134 -111 217 -194 31 -30
64 -58 73 -62 9 -3 33 -29 53 -57 20 -27 40 -50 44 -50 5 0 21 -11 37 -24 20
-16 34 -22 43 -16 11 7 4 19 -32 57 -25 26 -57 60 -71 76 -13 15 -27 27 -31
27 -8 0 -86 81 -111 116 -11 15 -51 63 -90 106 l-70 78 -58 0 -58 0 18 -24z"/>
<path d="M6268 15921 c-43 -42 -78 -82 -78 -87 0 -6 -11 -17 -25 -24 -13 -7
-27 -20 -30 -29 -3 -9 -79 -92 -170 -185 -91 -93 -165 -175 -165 -182 0 -17
27 -18 45 -1 7 6 50 46 96 87 102 92 139 129 139 141 0 5 6 9 13 9 6 0 57 43
111 95 55 52 107 95 115 95 9 0 24 17 34 38 11 22 30 43 47 51 17 7 39 26 51
42 l20 29 -63 0 -63 -1 -77 -78z"/>
<path d="M6670 15960 c0 -29 4 -40 15 -40 11 0 15 11 15 40 0 29 -4 40 -15 40
-11 0 -15 -11 -15 -40z"/>
<path d="M6756 15985 c4 -9 15 -20 25 -26 15 -7 19 -6 19 6 0 11 11 15 40 15
22 0 40 -4 40 -10 0 -6 33 -10 80 -10 75 0 80 -1 80 -21 0 -19 4 -17 35 15 19
21 35 39 35 42 0 2 -81 4 -180 4 -157 0 -179 -2 -174 -15z"/>
<path d="M7170 15960 c0 -28 4 -40 14 -40 8 0 16 -7 20 -15 7 -20 42 -19 50 1
3 9 6 33 6 55 l0 39 -45 0 -45 0 0 -40z"/>
<path d="M7360 15990 c0 -5 7 -10 15 -10 20 0 35 -40 35 -90 0 -21 3 -45 6
-54 10 -25 24 -18 24 12 0 32 35 61 53 43 6 -6 33 -11 59 -11 39 0 48 3 48 18
0 17 46 52 68 52 6 0 13 -9 17 -20 7 -21 76 -100 89 -100 4 0 4 4 1 10 -3 5 6
21 20 34 26 25 40 75 29 109 -5 15 -25 17 -235 17 -146 0 -229 -4 -229 -10z"/>
<path d="M8000 15960 l0 -40 40 0 c30 0 40 4 40 16 0 14 3 14 15 4 11 -9 13
-15 5 -20 -7 -5 1 -21 24 -45 21 -21 36 -32 36 -23 0 35 25 68 53 68 20 0 27
5 27 20 0 11 4 20 9 20 5 0 13 -9 16 -20 4 -13 15 -20 31 -20 24 0 25 3 19 33
-4 17 -9 35 -12 40 -2 4 -71 7 -154 7 l-149 0 0 -40z"/>
<path d="M8420 15961 c0 -22 -5 -41 -11 -43 -11 -4 13 -58 38 -85 6 -7 17 -26
25 -43 11 -26 18 -30 50 -30 27 0 38 -4 38 -15 0 -8 4 -15 9 -15 5 0 14 -14
20 -31 6 -17 19 -33 30 -36 10 -3 21 -13 24 -24 8 -30 37 -23 44 11 5 28 19
36 48 30 5 -1 35 -1 66 -1 l57 0 4 -50 c7 -72 18 -79 76 -49 26 13 57 35 69
47 28 29 37 29 66 1 l22 -23 -55 -5 -55 -5 23 -22 c28 -29 38 -29 66 2 32 34
45 32 86 -15 19 -22 42 -40 50 -40 8 0 31 18 50 40 19 22 42 40 52 40 9 0 31
18 48 40 28 36 36 40 76 40 32 0 44 4 44 15 0 10 11 15 35 15 36 0 38 3 47 64
2 11 18 29 36 39 l33 19 25 -23 c13 -12 24 -33 24 -46 0 -23 23 -32 35 -13 13
21 125 2 125 -21 0 -12 52 4 57 17 3 8 14 14 24 14 14 0 19 -7 19 -25 0 -14
-4 -25 -10 -25 -5 0 -10 -7 -10 -15 0 -8 7 -15 15 -15 8 0 15 5 15 10 0 15 47
12 53 -2 2 -7 10 8 17 35 8 32 22 54 41 68 l28 20 11 -40 c10 -39 48 -79 60
-63 4 6 36 23 93 50 4 2 7 -3 7 -11 0 -28 35 -47 88 -47 29 0 52 -4 52 -10 0
-5 5 -10 11 -10 7 0 18 -8 26 -17 13 -17 14 -17 29 5 13 17 26 22 58 21 22 -1
33 -3 24 -6 -15 -4 -18 -16 -18 -76 1 -46 6 -79 15 -90 13 -18 15 -16 25 25 7
23 14 49 16 56 6 20 21 14 28 -11 3 -13 17 -29 31 -35 19 -9 25 -19 25 -44 1
-39 23 -73 44 -65 8 3 20 22 27 41 12 35 27 42 67 37 8 -1 25 10 39 26 17 18
28 23 31 15 2 -7 21 -12 43 -12 21 0 39 -4 39 -9 0 -5 18 -2 40 7 31 13 46 30
72 77 33 60 33 60 83 63 28 1 45 -1 39 -5 -6 -5 -14 -34 -18 -67 -11 -98 23
-109 59 -18 9 22 23 43 31 46 8 3 14 13 14 23 0 15 2 16 10 3 7 -11 10 0 10
38 0 49 -1 52 -25 52 -16 0 -25 -6 -25 -15 0 -8 -7 -15 -15 -15 -8 0 -15 5
-15 11 0 7 -7 17 -15 23 -9 7 -15 30 -16 61 -1 28 -8 62 -15 77 -8 15 -14 36
-14 46 0 24 28 50 38 36 4 -6 23 -16 42 -24 19 -8 40 -21 47 -30 10 -12 12 -8
13 28 l0 42 -250 0 -250 0 0 -29 c0 -16 -6 -31 -14 -34 -8 -3 -17 -20 -21 -37
-5 -21 -15 -34 -33 -41 -34 -13 -56 -4 -47 19 4 9 11 37 16 61 5 25 15 48 22
53 6 4 -158 8 -365 8 -360 0 -378 -1 -378 -18 0 -11 -11 -24 -25 -30 -16 -7
-28 -23 -31 -41 -4 -16 -12 -32 -20 -35 -7 -3 -16 -22 -20 -43 -9 -49 -12 -53
-29 -46 -19 7 -19 49 -1 56 17 7 31 66 22 95 -4 11 -15 29 -25 41 -18 21 -20
21 -584 21 -633 0 -568 8 -582 -73 -11 -69 -25 -88 -59 -85 -30 3 -31 5 -31
53 0 28 3 62 8 78 l7 27 -95 0 -95 0 0 -39z m2556 -85 c-4 -22 -9 -42 -12 -45
-12 -12 -21 18 -17 56 4 32 8 40 20 36 12 -5 14 -15 9 -47z m-1744 -13 c6 -30
-4 -63 -18 -63 -14 0 -20 60 -7 73 11 12 21 8 25 -10z m1584 -70 c-4 -27 -9
-69 -12 -95 -5 -40 -10 -48 -35 -57 -22 -7 -29 -16 -29 -36 0 -33 -28 -45 -46
-20 -8 10 -14 41 -14 68 0 40 3 50 20 54 13 4 20 14 20 30 0 13 4 22 9 18 11
-6 71 54 71 73 0 6 5 12 11 12 7 0 9 -16 5 -47z m-82 -258 c3 -8 1 -15 -4 -15
-6 0 -10 7 -10 15 0 8 2 15 4 15 2 0 6 -7 10 -15z"/>
<path d="M7338 15956 c-17 -16 -25 -56 -12 -56 15 0 35 32 32 52 -3 21 -4 21
-20 4z"/>
<path d="M7840 15939 c0 -16 26 -39 44 -39 9 0 16 5 16 10 0 6 -7 10 -15 10
-8 0 -15 4 -15 9 0 5 -7 11 -15 15 -8 3 -15 1 -15 -5z"/>
<path d="M6504 15924 c3 -9 6 -18 6 -20 0 -3 5 -2 10 1 16 10 12 35 -6 35 -11
0 -14 -5 -10 -16z"/>
<path d="M7272 15868 c-16 -16 -15 -43 3 -58 12 -10 16 -8 25 14 9 25 5 56 -9
56 -4 0 -12 -5 -19 -12z"/>
<path d="M7850 15840 c-9 -6 -9 -12 1 -29 21 -33 32 -27 43 25 2 10 -29 13
-44 4z"/>
<path d="M9585 15690 c-3 -5 -1 -10 4 -10 6 0 11 5 11 10 0 6 -2 10 -4 10 -3
0 -8 -4 -11 -10z"/>
<path d="M8480 15665 c0 -8 2 -15 4 -15 2 0 6 7 10 15 3 8 1 15 -4 15 -6 0
-10 -7 -10 -15z"/>
<path d="M8801 15584 c0 -11 3 -14 6 -6 3 7 2 16 -1 19 -3 4 -6 -2 -5 -13z"/>
<path d="M5440 15460 c0 -19 3 -21 12 -12 9 9 9 15 0 24 -9 9 -12 7 -12 -12z"/>
<path d="M5477 15433 c-11 -11 -8 -19 18 -47 22 -24 65 -36 65 -18 0 8 -64 72
-72 72 -3 0 -8 -3 -11 -7z"/>
<path d="M5767 15383 c-12 -11 -8 -23 8 -23 8 0 15 7 15 15 0 16 -12 20 -23 8z"/>
<path d="M5627 15283 c-4 -3 -7 -21 -7 -38 0 -31 2 -33 40 -33 43 -1 48 7 30
52 -9 25 -46 36 -63 19z"/>
<path d="M5710 15190 c0 -11 7 -20 15 -20 8 0 15 6 15 14 0 8 -7 16 -15 20
-10 4 -15 -1 -15 -14z"/>
<path d="M5577 15193 c-12 -11 -8 -23 7 -23 7 0 19 7 26 15 10 12 9 15 -7 15
-11 0 -23 -3 -26 -7z"/>
<path d="M5523 15131 c-3 -11 -10 -18 -17 -15 -6 2 -34 -6 -61 -19 -28 -14
-60 -27 -72 -31 -12 -4 -38 -22 -59 -41 -41 -38 -69 -46 -61 -17 14 49 16 47
-60 47 -40 0 -73 -3 -73 -7 0 -5 -29 -8 -65 -8 -50 0 -77 -6 -115 -25 -27 -14
-59 -25 -71 -25 -29 0 -163 -144 -195 -208 -63 -131 -113 -260 -115 -302 -3
-71 1 -114 11 -130 8 -12 11 -12 28 3 23 21 42 22 42 2 0 -14 -12 -19 -32 -16
-5 0 -8 -7 -8 -17 0 -10 -6 -27 -14 -38 -20 -29 -25 -137 -6 -159 7 -9 15 -38
16 -63 4 -96 18 -188 30 -207 7 -11 15 -40 19 -65 5 -37 3 -49 -14 -69 -14
-15 -21 -38 -21 -63 0 -40 18 -52 27 -18 3 10 18 25 34 32 l29 13 0 133 c0
113 3 139 20 172 11 22 20 46 20 55 0 9 9 35 20 59 15 34 19 62 17 137 -2 87
0 97 23 128 55 72 67 81 112 82 92 3 124 -14 225 -120 85 -88 97 -116 70 -153
-23 -29 -121 -67 -193 -74 -115 -11 -148 -38 -157 -126 -5 -48 -2 -62 15 -83
16 -21 26 -25 51 -20 37 6 43 2 75 -43 l23 -33 -31 -35 c-42 -48 -38 -78 11
-82 30 -3 48 5 104 45 99 70 169 144 184 192 9 33 16 41 35 41 39 0 49 -24 54
-130 5 -96 -10 -190 -29 -190 -4 0 -11 -9 -14 -20 -5 -15 -15 -20 -41 -20 -19
0 -45 -7 -58 -15 -23 -15 -24 -14 -45 20 -17 30 -26 36 -48 33 -33 -4 -78 -65
-91 -126 -8 -35 -7 -44 9 -58 18 -16 21 -15 54 10 19 15 39 35 45 46 16 30 52
29 72 -3 25 -39 25 -39 -18 -64 -59 -35 -86 -45 -109 -39 -49 13 -125 -82
-125 -159 -1 -72 -52 -110 -110 -80 -39 21 -82 70 -89 105 -10 52 -26 39 -28
-25 -2 -36 3 -67 11 -80 7 -11 19 -44 25 -72 7 -29 17 -53 21 -53 5 0 11 -13
15 -30 4 -16 11 -32 16 -36 16 -10 59 -102 59 -127 0 -24 79 -152 108 -174 21
-17 57 -16 92 2 27 14 31 13 55 -8 25 -21 26 -24 13 -62 -15 -47 -41 -56 -68
-23 -17 21 -19 22 -25 5 -4 -10 -5 -20 -2 -23 3 -3 -5 -25 -18 -48 -21 -38
-22 -44 -9 -75 8 -18 14 -35 14 -37 0 -11 -43 -1 -74 17 -63 37 -77 0 -19 -51
34 -30 39 -32 92 -26 67 7 80 0 102 -56 10 -26 24 -44 35 -46 27 -5 38 -18 21
-25 -8 -3 -34 4 -58 15 -24 11 -64 21 -88 21 -41 0 -48 -4 -89 -49 -57 -63
-82 -119 -98 -219 -10 -66 -9 -85 2 -106 26 -51 52 -51 142 1 39 22 92 44 118
50 25 6 55 15 65 20 21 12 80 97 78 113 -1 7 1 29 6 50 6 33 4 40 -14 53 -32
23 -18 31 41 24 61 -9 68 -7 61 18 -5 19 51 92 71 92 5 0 17 7 27 16 10 9 25
14 34 10 13 -4 8 -14 -22 -46 -21 -22 -44 -40 -50 -40 -7 0 -13 -7 -13 -15 0
-8 -9 -23 -20 -32 -11 -10 -20 -28 -20 -40 0 -12 -7 -28 -15 -35 -39 -33 -45
-41 -45 -62 0 -13 -10 -30 -22 -38 -21 -14 -22 -22 -22 -175 -1 -152 0 -163
22 -192 26 -35 27 -59 7 -127 -9 -33 -14 -93 -14 -184 1 -78 -4 -156 -11 -184
-17 -64 -8 -271 26 -640 26 -276 26 -300 11 -573 -1 -17 -5 -29 -9 -27 -10 6
-19 -13 -23 -49 -3 -37 -67 -169 -96 -200 -10 -11 -19 -24 -19 -29 0 -13 -75
-47 -146 -66 -75 -19 -89 -35 -47 -50 15 -5 45 -26 65 -45 37 -34 37 -35 18
-52 -28 -25 -90 -14 -196 36 -23 10 -51 19 -63 19 -12 0 -39 9 -61 20 -22 11
-55 20 -75 20 -20 0 -50 7 -66 16 -18 9 -47 14 -72 11 l-42 -3 33 -8 c17 -5
32 -14 32 -21 0 -14 22 -25 48 -25 10 0 38 -11 64 -25 26 -14 53 -25 60 -25
24 0 174 -66 203 -88 15 -12 34 -22 41 -22 7 0 17 -8 22 -17 5 -9 25 -24 43
-32 23 -11 41 -31 57 -66 16 -33 37 -58 63 -74 49 -31 56 -53 30 -95 -23 -37
-43 -49 -81 -50 -23 -1 -26 -6 -34 -71 -4 -38 -9 -94 -10 -123 0 -35 -6 -56
-16 -62 -28 -18 -113 -10 -174 15 -32 13 -82 29 -110 36 -28 7 -62 21 -75 31
-13 10 -30 18 -37 18 -8 0 -14 5 -14 10 0 6 -5 10 -11 10 -6 0 -24 9 -39 20
-24 17 -29 18 -34 5 -8 -21 3 -43 25 -50 10 -4 19 -11 19 -17 0 -5 23 -31 50
-58 28 -27 50 -52 50 -58 0 -16 34 -40 78 -54 36 -11 43 -18 48 -47 5 -25 3
-36 -10 -43 -9 -5 -16 -15 -16 -22 0 -8 -7 -19 -15 -26 -8 -7 -15 -16 -15 -21
0 -5 60 -9 134 -9 103 0 136 -3 145 -14 14 -16 11 -279 -2 -308 -6 -12 -3 -18
12 -23 36 -11 23 -25 -23 -25 -28 0 -48 -6 -57 -16 -15 -18 -13 -82 3 -102 14
-17 -17 -52 -47 -52 -27 0 -182 34 -216 48 -15 6 -29 9 -31 7 -2 -2 -26 18
-52 45 -42 42 -61 54 -133 76 -67 21 -94 25 -141 19 -31 -3 -92 -7 -135 -7
-75 -2 -103 -12 -78 -28 8 -4 11 -25 8 -58 -3 -39 -10 -58 -30 -78 -15 -15
-27 -30 -27 -34 0 -4 -8 -10 -18 -12 -10 -3 -30 -30 -45 -60 -18 -36 -41 -65
-66 -83 -38 -26 -39 -29 -35 -72 2 -25 0 -51 -5 -57 -6 -7 -12 -25 -15 -41 -3
-16 -15 -42 -26 -57 -23 -31 -25 -49 -8 -66 9 -9 8 -23 -6 -62 -10 -27 -15
-54 -11 -60 4 -6 11 -35 15 -63 31 -181 39 -205 90 -258 42 -43 54 -50 75 -45
17 4 25 13 26 29 0 21 1 21 10 -3 9 -22 11 -23 20 -8 10 18 1 76 -10 61 -8
-11 -48 -33 -61 -33 -5 0 -10 16 -10 36 0 37 -14 72 -36 89 -16 13 -29 131
-15 139 16 10 61 -5 61 -20 0 -7 17 -25 37 -39 l38 -25 8 27 c10 38 0 90 -19
97 -9 3 -31 6 -49 6 -54 0 -65 8 -65 50 0 36 2 38 44 49 57 14 76 35 34 38
-17 1 -33 4 -35 7 -9 9 9 46 22 46 19 0 26 27 10 40 -8 6 -11 18 -8 27 8 20
86 12 112 -11 10 -9 27 -16 38 -16 11 0 32 -11 47 -25 18 -16 39 -25 60 -25
18 0 44 -8 57 -17 58 -43 112 -55 172 -38 30 8 33 15 15 33 -9 9 -9 12 0 12 7
0 12 7 12 15 0 19 29 20 36 1 3 -8 1 -23 -5 -34 -9 -17 -5 -24 23 -46 88 -67
89 -88 6 -106 -33 -7 -63 -17 -66 -21 -3 -5 16 -14 41 -20 25 -6 45 -15 45
-20 0 -5 7 -9 16 -9 9 0 28 -9 44 -20 15 -11 30 -17 34 -13 3 3 6 -1 6 -10 0
-9 5 -17 10 -17 6 0 10 -10 10 -22 0 -19 -2 -20 -10 -8 -9 13 -10 13 -10 0 0
-13 -1 -13 -10 0 -5 8 -10 10 -10 3 0 -8 -11 -8 -43 2 -23 7 -73 14 -110 17
-65 4 -67 3 -67 -20 0 -13 4 -20 10 -17 5 3 10 1 10 -6 0 -7 3 -9 7 -6 11 11
33 -14 33 -37 -1 -24 -24 -59 -33 -49 -4 3 -8 -9 -8 -28 l-1 -34 -8 30 c-7 29
-8 29 -10 -10 -2 -22 -6 -427 -9 -900 l-6 -860 -169 -5 c-110 -3 -174 -1 -183
6 -13 8 -15 127 -18 790 -5 907 -4 855 -15 829 -5 -11 -9 -15 -9 -9 -1 8 -32
11 -96 10 -52 0 -95 3 -95 7 0 5 -5 5 -11 1 -6 -3 -15 -1 -19 5 -19 31 -30
-111 -24 -299 8 -223 8 -223 -4 -310 -14 -102 -58 -177 -131 -225 -33 -22 -61
-44 -61 -49 0 -16 80 -326 136 -523 30 -105 54 -199 54 -208 0 -27 -36 -32
-199 -28 -118 3 -159 8 -167 18 -6 8 -21 54 -34 102 -12 49 -42 160 -66 248
-25 88 -56 206 -70 263 l-26 102 -94 0 -94 0 0 -346 c0 -219 -4 -352 -10 -365
-10 -18 -23 -19 -180 -19 -96 0 -171 4 -175 10 -6 10 -21 1328 -17 1466 2 63
-1 84 -13 94 -11 9 -15 33 -17 84 -1 66 -2 68 -8 26 -7 -43 -7 -43 -8 -9 -1
19 -6 39 -11 45 -5 5 -11 23 -14 39 -3 17 -12 57 -20 90 -9 33 -21 94 -27 135
-11 77 -45 232 -61 284 -6 20 -5 34 5 47 20 29 7 87 -23 102 -38 19 -36 34 6
48 63 21 66 28 48 116 -27 133 -35 153 -62 153 -14 0 -23 -6 -23 -15 0 -19
-11 -19 -36 0 -19 14 -18 14 3 15 12 0 26 7 31 16 5 8 26 21 47 29 97 33 51
148 -65 165 -19 3 -34 10 -33 17 1 6 -4 14 -12 17 -8 3 -15 1 -15 -3 0 -5 -9
-7 -20 -4 -16 4 -20 0 -21 -23 -2 -49 -6 -71 -13 -83 -21 -34 -44 21 -38 92
l4 56 -33 8 c-28 8 -35 15 -37 39 -2 16 -11 37 -20 47 -9 10 -15 32 -13 50 7
104 1 210 -12 221 -7 6 -19 31 -26 56 -7 25 -19 52 -26 60 -7 8 -25 52 -40 96
-22 68 -26 92 -21 145 10 105 11 149 4 146 -4 -1 -14 7 -23 18 -14 19 -16 19
-29 3 -7 -10 -18 -18 -24 -18 -6 0 -18 -13 -27 -30 -9 -16 -20 -30 -25 -30 -5
0 -19 -18 -30 -40 -11 -22 -24 -40 -29 -40 -5 0 -15 -15 -21 -34 -6 -19 -18
-40 -26 -46 -7 -7 -14 -21 -14 -31 0 -11 -4 -19 -10 -19 -5 0 -10 -7 -10 -16
0 -25 -18 -6 -25 27 -4 17 -13 33 -21 36 -8 3 -14 11 -14 19 0 8 -9 14 -20 14
-17 0 -20 7 -20 40 0 22 5 40 10 40 6 0 10 9 10 20 0 23 -29 27 -48 8 -9 -9
-12 -7 -12 10 0 13 6 22 15 22 17 0 19 12 5 54 -5 17 -12 43 -15 59 -3 15 -12
27 -20 27 -26 0 -17 64 16 130 31 59 32 65 26 147 -8 117 2 243 19 243 10 0
14 -14 14 -43 0 -48 22 -102 45 -111 24 -9 82 32 100 69 9 19 20 35 25 35 6 0
10 27 10 60 0 73 -12 81 -71 52 -32 -16 -47 -18 -72 -11 -18 5 -33 14 -35 19
-2 6 -10 10 -18 10 -12 0 -19 -30 -15 -66 1 -6 -6 -17 -14 -24 -14 -12 -16 -5
-14 56 2 69 11 99 38 120 19 15 59 149 79 262 9 50 19 92 24 92 13 0 48 -34
69 -67 17 -28 23 -31 47 -23 15 5 43 11 63 14 21 4 42 13 49 21 7 8 24 15 39
15 20 0 31 9 48 39 23 40 25 41 136 57 32 4 47 3 47 -5 0 -6 13 -11 29 -11 16
0 36 -6 44 -14 12 -12 18 -13 41 -1 47 25 49 27 35 37 -9 6 -5 7 12 3 19 -5
28 -2 32 9 4 9 14 16 22 16 9 0 31 11 49 25 18 14 38 25 44 25 7 0 12 6 12 14
0 8 34 30 75 50 80 39 92 56 77 111 -8 30 -9 30 -21 8 -16 -30 -23 -29 -44 7
-10 17 -15 30 -11 30 3 0 1 7 -6 15 -17 21 -25 19 -38 -10 -6 -14 -19 -25 -28
-25 -9 0 -29 11 -46 25 -16 14 -42 25 -57 25 -16 0 -40 9 -55 21 -15 12 -34
18 -42 15 -11 -4 -38 16 -86 65 -78 81 -72 79 -213 61 -145 -18 -252 -18 -274
2 -9 9 -26 16 -37 16 -10 0 -31 8 -47 18 -26 18 -26 19 -10 35 25 22 108 53
189 71 38 8 101 22 140 30 39 9 86 22 106 30 19 9 66 20 104 26 37 6 73 15 79
20 6 5 38 13 70 19 33 5 74 15 90 21 17 6 66 20 110 30 100 23 174 50 199 73
11 9 28 17 38 17 16 0 125 64 138 82 3 3 19 10 35 14 17 4 38 15 48 25 10 11
24 19 32 19 8 0 20 8 27 18 7 10 29 24 48 32 36 14 80 42 114 73 11 9 28 17
37 17 23 0 59 47 59 76 0 28 -7 30 -30 9 -10 -9 -30 -17 -46 -19 -44 -6 -60
-15 -74 -41 -10 -19 -17 -22 -30 -15 -18 10 -50 -15 -50 -38 0 -7 -12 -12 -26
-12 -21 0 -25 3 -19 18 15 35 10 47 -17 50 -22 3 -28 9 -28 28 0 25 -15 33
-23 12 -2 -7 -2 -27 0 -45 4 -24 1 -34 -15 -42 -10 -6 -22 -7 -26 -4 -4 4 -9
-3 -13 -15 -7 -27 -24 -28 -46 -4 -25 27 -21 59 12 88 17 15 27 32 24 42 -6
25 14 72 31 72 32 0 27 139 -6 162 -7 5 -74 7 -158 3 -428 -19 -486 -23 -533
-40 -30 -11 -63 -15 -88 -12 -45 6 -115 -11 -174 -42 -21 -12 -44 -21 -51 -21
-6 0 -22 -16 -35 -35 -13 -19 -32 -38 -42 -41 -10 -3 -32 -22 -50 -42 -84 -95
-277 -282 -291 -282 -23 0 -20 27 4 35 11 3 20 13 20 20 0 8 11 22 25 31 14 9
25 20 25 26 0 5 26 33 58 63 31 30 66 63 77 75 12 11 26 20 32 20 6 0 13 9 16
21 3 11 15 23 26 26 23 6 28 35 8 51 -7 6 -33 16 -59 23 -38 11 -51 10 -79 -3
-29 -14 -57 -15 -189 -8 -85 4 -161 4 -169 0 -9 -5 -25 0 -42 12 -27 20 -29
20 -83 3 -54 -17 -55 -17 -82 4 -15 11 -32 21 -39 21 -7 0 -18 6 -24 14 -6 8
-49 26 -96 40 -96 30 -114 27 -177 -29 -21 -19 -43 -35 -48 -35 -6 0 -10 -7
-10 -15 0 -9 -11 -20 -25 -25 -14 -5 -25 -16 -25 -25 0 -15 -40 -22 -53 -8
-10 9 62 73 83 73 11 0 20 10 24 24 3 14 15 28 26 31 13 4 20 15 20 31 0 21
-4 24 -40 24 -22 0 -40 5 -40 10 0 6 11 10 25 10 18 0 25 5 25 19 0 10 7 25
16 32 13 11 15 25 11 69 -5 46 -3 58 14 76 11 12 21 34 22 50 2 31 -3 32 -126
51 -26 3 -52 18 -79 44 -24 23 -49 37 -61 36 -17 -2 -24 7 -35 38 -7 22 -21
49 -31 60 -10 11 -26 51 -35 88 -15 58 -16 86 -7 199 13 151 10 160 -62 205
-54 34 -57 38 -57 100 0 46 -3 54 -30 73 -17 12 -30 29 -30 38 0 10 -7 27 -14
38 -15 20 -11 64 4 64 4 0 13 -7 20 -15 7 -8 21 -15 31 -15 10 0 21 -4 24 -10
9 -14 35 -12 35 3 0 6 -5 28 -10 49 -8 27 -18 39 -41 47 -20 7 -35 22 -45 48
-23 55 -83 141 -102 148 -17 6 -62 68 -62 86 0 18 32 9 37 -11 3 -11 14 -20
24 -20 12 0 21 -10 25 -25 4 -16 16 -27 33 -31 14 -4 31 -10 36 -14 6 -4 27
-10 48 -12 37 -4 38 -4 31 26 -12 59 -123 192 -150 182 -20 -8 -43 20 -44 50
0 20 -14 34 -97 103 -26 22 -96 51 -123 51 -19 0 -20 -13 -20 -958 0 -955 0
-959 20 -977 17 -15 45 -20 143 -26 139 -8 177 -2 286 48 47 22 93 36 126 38
29 2 62 8 74 15 18 9 30 7 71 -13 l49 -25 -49 -6 c-35 -5 -50 -11 -50 -22 0
-8 -14 -23 -30 -32 -17 -9 -32 -24 -35 -34 -3 -9 -12 -18 -19 -21 -24 -9 -58
-89 -52 -119 4 -22 -3 -40 -31 -81 -20 -29 -47 -60 -59 -70 -61 -48 -155 -209
-156 -268 0 -28 -6 -40 -23 -49 -13 -7 -40 -48 -63 -94 -22 -45 -53 -92 -67
-106 -67 -62 -78 -140 -33 -225 9 -17 16 -40 15 -50 -1 -12 7 -24 21 -30 12
-5 22 -15 22 -21 0 -7 8 -10 18 -7 10 2 30 0 45 -6 30 -12 37 -50 13 -70 -31
-26 -39 -215 -10 -258 15 -24 20 -25 73 -20 67 7 97 -5 67 -28 -11 -8 -26 -15
-33 -15 -8 0 -26 -9 -41 -20 -18 -13 -55 -22 -115 -28 -84 -9 -123 -24 -111
-43 3 -5 -7 -10 -23 -10 -19 -1 -22 -3 -9 -6 10 -3 29 1 42 7 24 13 188 9 202
-5 4 -4 -6 -17 -21 -29 l-28 -23 27 -18 c26 -17 49 -20 88 -13 29 5 31 -21 2
-32 -14 -5 -26 -16 -26 -25 0 -8 -4 -15 -10 -15 -5 0 -10 -7 -10 -15 0 -24
-66 -172 -88 -198 -24 -27 -5 -33 47 -14 27 9 51 17 55 17 12 0 6 -28 -8 -33
-15 -6 -11 -47 4 -47 4 0 10 -7 14 -15 4 -10 -5 -22 -25 -34 -21 -13 -27 -21
-18 -26 20 -13 79 -7 95 10 9 8 29 15 46 15 16 0 41 9 55 20 25 19 87 28 96
13 3 -5 -14 -29 -38 -55 -41 -46 -67 -59 -79 -39 -6 10 -48 3 -56 -9 -3 -4
-22 -15 -44 -24 -27 -11 -37 -20 -32 -31 3 -9 2 -14 -3 -11 -11 7 -81 -13 -81
-23 0 -4 -18 -16 -40 -26 -54 -24 -52 -41 4 -37 28 3 51 11 62 23 9 10 25 19
35 19 10 0 22 7 27 16 5 9 26 22 46 29 32 11 38 11 43 -2 3 -8 -6 -26 -23 -42
-16 -14 -47 -48 -69 -74 -22 -26 -50 -59 -63 -73 -16 -19 -22 -38 -23 -77 -1
-57 -6 -94 -16 -117 -4 -8 -7 -24 -7 -35 -1 -16 -7 -19 -28 -17 -36 4 -43 -13
-16 -40 18 -18 43 -26 118 -36 192 -26 187 -26 216 -3 15 12 33 21 40 21 7 0
16 9 19 20 3 11 11 20 16 20 14 0 11 -42 -6 -74 -8 -15 -15 -35 -15 -42 0 -17
-95 -61 -160 -75 -25 -5 -61 -16 -80 -24 -19 -8 -54 -19 -77 -25 -35 -9 -47
-18 -63 -50 -11 -22 -20 -52 -20 -67 0 -15 -9 -43 -21 -62 -18 -31 -19 -35 -4
-57 14 -21 23 -24 84 -24 56 0 75 4 105 25 45 31 59 31 104 3 l35 -22 -52 -16
c-28 -10 -60 -25 -70 -34 -9 -9 -23 -16 -29 -16 -7 0 -26 -13 -43 -29 -17 -17
-36 -32 -42 -34 -19 -7 -1 -18 44 -28 49 -11 142 -3 179 16 53 27 170 30 170
5 0 -4 -15 -15 -33 -23 -26 -13 -37 -29 -62 -94 -16 -43 -41 -87 -54 -99 -22
-19 -23 -24 -12 -38 17 -20 86 -11 113 14 10 9 42 25 71 35 51 17 53 17 125
-5 60 -18 71 -25 61 -36 -6 -8 -19 -14 -29 -14 -10 0 -33 -7 -52 -15 -20 -8
-70 -18 -113 -24 -42 -5 -96 -19 -119 -30 -22 -11 -53 -23 -68 -26 -31 -6 -39
-39 -12 -49 13 -5 11 -11 -12 -41 -22 -29 -33 -35 -63 -35 -20 0 -54 -9 -76
-20 -22 -11 -40 -20 -41 -20 -2 0 -4 12 -6 27 -2 14 -8 28 -14 30 -14 5 -124
-103 -124 -122 0 -34 -21 -57 -45 -51 -36 9 -55 -3 -55 -34 0 -20 6 -31 20
-35 30 -10 39 -35 30 -84 -5 -31 -3 -57 7 -87 14 -40 18 -44 48 -44 24 0 37 7
49 25 9 14 29 28 44 31 15 4 38 15 51 26 13 10 35 18 48 18 13 0 45 10 71 23
39 18 63 22 142 21 117 0 145 -7 147 -34 1 -11 -2 -20 -8 -20 -5 0 -9 -5 -9
-11 0 -7 -8 -17 -17 -24 -17 -13 -41 -114 -42 -182 -1 -17 -6 -33 -11 -35 -6
-2 -11 -30 -11 -63 -1 -33 -5 -65 -11 -72 -5 -7 -7 -16 -4 -21 3 -5 -10 -18
-29 -28 -20 -10 -35 -26 -35 -36 0 -10 -6 -18 -14 -18 -8 0 -19 -20 -26 -47
-24 -93 -32 -113 -44 -113 -7 0 -20 -18 -29 -40 -8 -22 -11 -40 -6 -40 9 0
-16 -70 -29 -80 -10 -7 -32 -42 -38 -62 -4 -10 -11 -18 -18 -18 -16 0 -36 -48
-36 -88 0 -26 -3 -33 -15 -28 -9 3 -25 -4 -38 -17 l-22 -22 22 -3 c28 -4 29
-14 3 -37 -16 -14 -20 -15 -21 -4 -2 24 -17 -44 -18 -84 -1 -50 -25 -45 -29 6
-3 29 -7 37 -23 37 -10 0 -19 3 -19 8 -1 4 -6 68 -11 142 -6 74 -12 185 -15
245 -2 61 -8 123 -12 140 -5 16 -5 52 0 80 9 59 2 105 -17 105 -7 0 -16 8 -18
18 -3 9 -5 -1611 -6 -3600 l-1 -3618 5655 0 5655 0 -2 3395 c-3 2842 -5 3397
-17 3404 -10 7 -11 13 -1 31 9 17 11 87 8 272 -3 137 -8 252 -12 256 -4 4 -17
-5 -28 -20 -16 -23 -23 -26 -39 -18 -12 7 -19 21 -19 40 0 17 -4 30 -9 30 -15
0 -19 -23 -10 -48 6 -14 5 -31 -1 -43 -9 -16 -7 -19 15 -19 22 0 25 -4 25 -39
0 -22 5 -42 13 -44 6 -3 2 -6 -10 -6 -13 -1 -23 -6 -23 -12 0 -26 25 -95 37
-102 17 -11 17 -34 -1 -40 -10 -4 -16 2 -18 21 -2 15 -8 26 -15 25 -12 -3 -29
89 -19 105 3 5 -6 19 -19 30 -14 12 -25 31 -25 42 0 11 -4 20 -10 20 -5 0 -10
6 -10 14 0 8 -7 16 -15 20 -8 3 -15 14 -15 24 0 10 -11 41 -25 68 -14 27 -25
54 -25 59 0 6 -11 30 -24 55 -13 25 -27 63 -30 85 -4 22 -16 49 -27 61 -13 14
-18 32 -16 60 2 35 -1 40 -30 53 -18 8 -33 22 -33 31 0 32 22 80 41 91 23 12
25 52 4 73 -12 12 -29 14 -70 10 -57 -6 -65 0 -45 35 5 11 26 21 47 24 53 9
83 32 83 66 0 20 -7 31 -26 39 -14 7 -23 15 -21 20 23 45 37 84 32 92 -11 18
-76 40 -119 40 -38 0 -50 -4 -104 -37 -17 -11 -24 -10 -43 6 -20 16 -23 27
-21 73 2 49 0 56 -23 68 -14 8 -29 27 -33 44 -7 25 -13 30 -33 27 l-24 -3 20
22 c23 25 14 47 -28 68 -39 19 -51 47 -36 83 6 16 9 32 5 36 -3 3 -6 1 -6 -6
0 -7 -4 -9 -10 -6 -5 3 -10 19 -10 35 0 16 5 32 10 35 6 3 10 24 10 45 0 34
-4 42 -30 55 -16 8 -39 15 -52 15 -44 1 -93 33 -96 63 -5 40 22 62 75 59 37
-1 44 1 41 16 -2 10 -12 16 -23 15 -50 -7 -83 7 -94 39 -8 23 -8 34 0 39 15 9
46 0 60 -17 18 -22 56 -17 63 9 16 59 -5 100 -106 211 -26 29 -22 36 20 36 20
0 53 9 72 19 19 11 45 24 57 30 46 22 41 35 -50 131 -30 31 -76 72 -102 91
-26 19 -51 44 -56 57 -5 13 -17 22 -30 22 -12 0 -19 5 -16 13 4 12 16 13 47 6
9 -3 16 4 18 17 2 17 -9 26 -66 52 -38 18 -76 32 -85 32 -10 0 -17 8 -17 18 0
9 -9 23 -20 30 -11 7 -20 19 -20 27 0 22 28 18 40 -6 11 -20 12 -20 31 -3 29
26 26 94 -6 124 -14 13 -25 28 -25 33 0 5 -8 16 -17 23 -16 11 -15 13 10 19
47 12 136 -4 203 -35 53 -26 104 -39 104 -26 0 2 -7 17 -15 32 -8 16 -15 38
-15 50 0 38 -64 147 -113 194 -57 54 -82 96 -61 104 7 3 20 -2 29 -10 24 -25
49 -12 63 31 7 22 23 48 35 57 21 16 23 16 44 -4 13 -12 23 -33 23 -46 l0 -25
18 24 c13 18 17 41 16 94 -2 77 3 85 54 85 19 0 46 8 60 19 37 25 64 29 242
36 85 3 193 8 240 11 64 5 100 2 145 -11 73 -20 106 -20 122 1 14 19 18 460 5
508 -7 26 -12 29 -57 31 -28 2 -77 8 -110 14 -138 25 -235 33 -325 27 -125 -7
-170 -16 -170 -31 0 -18 -48 -25 -173 -25 -108 0 -110 0 -137 -29 -16 -16 -31
-38 -35 -50 -8 -26 -20 -26 -50 -3 -20 16 -32 18 -82 11 -32 -5 -84 -11 -115
-14 -60 -7 -68 -14 -43 -38 13 -13 13 -17 -1 -28 -12 -10 -16 -9 -20 8 -4 13
-24 26 -61 38 -62 21 -103 49 -103 71 0 8 -20 27 -45 42 -25 15 -45 34 -45 42
0 8 -8 31 -19 50 -15 29 -26 36 -61 42 -53 9 -70 23 -70 58 0 42 -28 100 -48
100 -28 0 -102 80 -102 112 0 26 15 22 28 -7 6 -14 16 -25 22 -25 14 0 80 -66
80 -80 0 -5 9 -10 20 -10 11 0 20 -5 20 -10 0 -6 12 -16 28 -23 39 -18 72 -48
72 -67 0 -10 13 -32 28 -50 26 -30 31 -31 53 -20 22 12 78 61 149 133 16 15
30 27 32 27 20 0 -34 -154 -75 -212 -19 -29 -16 -65 7 -80 16 -11 76 -10 116
2 19 6 59 15 89 20 42 7 109 39 160 77 2 1 -8 35 -22 75 -14 40 -29 100 -32
133 -4 33 -15 79 -26 102 -10 24 -19 52 -19 64 0 12 -8 29 -19 38 -10 9 -21
26 -25 39 -6 18 -4 22 13 22 34 0 35 21 2 52 -43 40 -41 76 4 127 l36 39 -28
6 c-15 3 -47 8 -70 11 -23 4 -47 13 -54 21 -6 8 -26 14 -44 14 -28 0 -35 -5
-43 -29 -6 -16 -8 -38 -6 -48 3 -11 -5 -30 -20 -46 -14 -16 -26 -32 -26 -38 0
-5 -22 -38 -48 -72 -27 -34 -52 -74 -55 -89 -6 -21 -11 -26 -25 -21 -24 10
-32 21 -70 92 l-34 63 25 36 c42 62 66 113 60 129 -3 8 -7 22 -8 31 -1 10 -5
30 -10 46 -7 27 -3 34 51 85 78 74 142 149 160 186 8 17 24 46 35 65 10 19 19
53 19 76 0 22 9 59 20 82 14 29 20 62 20 114 0 95 11 113 43 74 32 -40 42 -21
26 51 l-13 56 35 28 c64 53 88 80 95 111 5 27 2 35 -18 52 -31 26 -46 53 -62
115 -10 41 -10 53 5 87 22 53 82 105 117 103 15 -1 43 8 63 19 35 22 36 22 31
79 -4 44 -10 63 -28 80 -28 26 -30 50 -9 100 15 36 15 37 -13 67 -16 17 -35
45 -41 63 -7 18 -33 47 -57 65 -24 18 -47 43 -50 56 -4 13 -17 25 -32 29 -22
5 -57 31 -108 81 -35 34 -152 52 -279 43 -11 -1 -54 3 -95 9 -141 20 -148 18
-250 -73 -93 -83 -130 -121 -130 -134 0 -6 -9 -15 -20 -18 -11 -3 -20 -12 -20
-20 0 -7 -3 -20 -6 -28 -4 -10 1 -15 13 -14 13 2 19 -6 21 -28 4 -32 19 -48
39 -41 18 7 25 -22 28 -102 1 -50 -2 -76 -12 -83 -7 -6 -13 -18 -13 -26 0 -12
-8 -14 -35 -9 -30 6 -41 3 -66 -18 -21 -18 -42 -26 -70 -26 -38 0 -39 -1 -39
-36 0 -21 8 -47 20 -61 24 -31 22 -35 -32 -42 -37 -5 -46 -11 -65 -47 -18 -32
-23 -58 -24 -127 -1 -76 2 -93 25 -137 25 -47 27 -59 24 -158 -3 -96 -1 -110
19 -137 15 -21 23 -51 26 -103 3 -40 13 -103 21 -140 26 -120 33 -193 22 -219
-16 -34 -33 -28 -41 15 -4 20 -15 45 -25 54 -10 10 -25 27 -34 40 -13 18 -18
20 -28 10 -33 -33 6 -185 62 -246 30 -33 37 -47 33 -69 -3 -15 0 -34 7 -42 10
-12 9 -15 -4 -15 -9 0 -16 5 -16 10 0 14 -18 12 -60 -6 -44 -19 -80 -81 -80
-137 0 -30 -5 -39 -24 -47 -13 -5 -27 -14 -31 -19 -14 -23 -44 -9 -94 43 -28
30 -51 62 -51 70 0 9 -17 34 -37 57 -34 38 -41 41 -78 37 -40 -5 -65 8 -65 32
0 5 -4 10 -10 10 -5 0 -16 14 -25 30 -13 26 -21 30 -55 30 -49 0 -88 -15 -112
-42 -10 -12 -18 -16 -18 -10 0 8 -18 5 -50 -8 -54 -21 -110 -26 -126 -11 -5 5
-33 16 -63 25 -52 15 -53 15 -48 -5 6 -21 -26 -59 -49 -59 -23 0 -139 32 -165
46 -15 7 -42 16 -60 19 -18 3 -38 10 -44 15 -6 5 -33 14 -60 20 -124 28 -142
33 -178 46 -21 8 -66 18 -100 24 -34 5 -111 21 -172 35 -60 14 -129 25 -153
25 -91 0 -183 37 -197 80 -4 11 1 29 9 42 9 12 16 31 16 42 0 35 22 97 60 166
10 19 19 46 20 59 0 13 9 33 20 45 47 48 81 96 99 139 11 25 29 52 41 59 12 7
30 31 40 53 25 51 60 108 70 115 10 7 80 99 80 106 0 13 30 34 48 34 11 0 55
32 97 70 81 74 90 78 170 82 40 2 50 6 50 21 0 27 -96 145 -125 152 -14 4 -37
17 -51 31 -36 34 -55 23 -89 -52 -28 -63 -29 -64 -69 -64 -22 0 -43 5 -46 10
-10 15 -78 12 -103 -6 -28 -19 -28 -28 1 -67 13 -18 30 -49 40 -69 l16 -37
-47 -41 c-44 -39 -50 -41 -94 -36 -53 6 -46 11 -133 -89 -71 -80 -82 -92 -98
-102 -21 -14 -91 -106 -116 -153 -26 -49 -83 -132 -146 -213 -22 -29 -53 -71
-69 -94 -44 -65 -53 -65 -219 -7 -103 36 -126 32 -141 -27 -3 -15 -21 -45 -38
-67 -18 -22 -46 -59 -61 -81 -31 -45 -46 -50 -71 -22 -25 28 -20 237 7 264 30
30 30 72 2 91 -32 21 -34 20 -45 -9 -5 -14 -16 -25 -25 -25 -22 0 -19 58 5
127 24 69 25 106 5 123 -13 11 -20 10 -42 -6 -15 -11 -31 -34 -37 -52 -37
-108 -60 -30 -54 180 5 136 8 161 24 179 18 20 18 21 -2 37 -16 14 -20 29 -21
82 0 36 -5 88 -12 115 -13 55 -17 157 -7 173 3 6 11 48 16 94 6 46 18 108 27
140 17 62 15 118 -11 231 -16 67 -59 157 -77 157 -15 0 2 94 21 114 23 24 33
17 61 -40 12 -25 37 -66 55 -90 19 -24 34 -52 34 -62 0 -10 7 -27 15 -38 13
-18 14 -17 15 16 0 20 9 54 21 75 12 24 23 72 28 120 4 44 13 90 19 101 11 21
15 92 10 199 -3 57 -4 60 -31 63 -29 4 -36 16 -12 26 17 6 20 42 4 52 -6 3
-22 1 -35 -7 -21 -11 -26 -10 -39 7 -17 22 -19 81 -5 119 21 54 20 75 -2 75
-11 0 -35 12 -53 28 -18 15 -41 34 -51 43 -10 9 -35 34 -54 57 -19 23 -41 42
-48 42 -7 0 -29 8 -50 19 -23 11 -45 16 -57 11 -34 -12 -55 0 -55 31 0 34 -29
41 -37 10z m-684 -585 c-13 -14 -29 -26 -36 -26 -7 0 -13 -6 -13 -14 0 -8 -10
-23 -23 -33 -13 -10 -26 -26 -30 -35 -3 -10 -15 -18 -26 -18 -10 0 -21 -9 -24
-20 -3 -11 -10 -20 -16 -20 -17 0 -13 30 4 36 8 4 15 11 15 16 0 15 72 88 86
88 7 0 14 9 17 20 3 11 14 20 25 20 12 0 23 9 27 23 6 18 8 19 12 5 2 -9 -6
-28 -18 -42z m4478 -742 c3 -8 0 -27 -7 -42 -7 -16 -15 -22 -17 -14 -3 6 -9
10 -14 6 -5 -3 -9 8 -9 25 0 37 35 57 47 25z m-9273 -140 c8 -22 8 -24 -8 -24
-18 0 -29 16 -21 30 9 15 22 12 29 -6z m82 -65 c16 -16 40 -41 54 -54 20 -20
22 -27 11 -37 -10 -11 -17 -8 -35 15 -12 15 -28 27 -35 27 -13 0 -71 58 -71
73 0 19 50 4 76 -24z m9562 -111 c15 -15 15 -52 0 -96 -11 -29 -10 -38 8 -70
28 -48 18 -74 -35 -95 -24 -10 -46 -28 -55 -44 -8 -16 -32 -36 -55 -46 -49
-22 -60 -51 -41 -116 16 -59 15 -77 -10 -135 -23 -50 -20 -95 6 -117 19 -16
19 -103 -1 -119 -13 -10 -19 -9 -38 6 -12 11 -26 26 -31 34 -5 8 -20 24 -32
37 -12 12 -25 32 -29 43 -4 12 -17 25 -29 30 -22 8 -23 13 -18 87 5 96 -6 144
-39 160 -13 7 -25 9 -26 5 -1 -4 -4 -33 -8 -64 -12 -107 -64 -126 -72 -27 -2
30 -11 73 -19 97 -8 24 -11 54 -8 68 6 22 10 24 38 18 17 -3 41 -15 53 -26 30
-28 53 -12 78 51 11 28 22 51 26 51 4 0 9 8 11 18 3 11 22 23 46 30 70 21 206
112 208 138 1 10 2 32 3 47 1 19 8 31 24 37 30 12 31 12 45 -2z m-4413 -248
c-3 -5 -11 -10 -18 -10 -6 0 -23 -11 -37 -25 -34 -33 -94 -44 -103 -21 -5 13
2 21 27 31 19 8 37 19 41 25 3 5 26 10 51 10 28 0 43 -4 39 -10z m3854 -49
c-15 -5 -22 6 -14 19 6 9 10 9 16 -1 5 -8 4 -15 -2 -18z m796 -289 c6 -4 21
-21 33 -39 l22 -32 -22 -54 c-24 -59 -53 -86 -71 -68 -6 6 -23 11 -38 11 -34
0 -44 14 -24 33 8 9 15 24 15 35 0 33 23 86 44 104 24 20 27 21 41 10z m-595
-167 c0 -10 -11 -15 -35 -15 -33 0 -43 8 -28 23 13 14 63 7 63 -8z m197 -132
c-3 -10 -5 -4 -5 12 0 17 2 24 5 18 2 -7 2 -21 0 -30z m-4247 -62 c0 -10 -7
-21 -14 -24 -8 -3 -20 -25 -26 -48 -13 -48 -26 -42 -35 16 -6 37 -5 39 9 21
15 -18 16 -18 26 8 5 15 10 32 10 37 0 5 7 9 15 9 8 0 15 -9 15 -19z m-4866
-117 c4 -9 1 -23 -5 -31 -10 -12 -14 -12 -26 0 -16 15 -7 47 12 47 7 0 16 -7
19 -16z m-184 -55 c0 -14 -7 -19 -26 -19 -25 0 -25 6 -1 37 12 17 27 7 27 -18z
m5486 6 c10 -26 -21 -60 -55 -63 -47 -4 -54 6 -30 36 31 41 75 54 85 27z
m1584 -381 c21 -18 97 -93 135 -134 46 -50 65 -81 65 -106 0 -20 18 -66 70
-179 10 -22 21 -51 25 -63 4 -13 16 -33 26 -43 12 -12 19 -33 19 -57 0 -22 8
-54 17 -73 9 -18 20 -56 25 -83 4 -27 11 -52 16 -55 5 -3 13 -26 17 -51 4 -25
17 -56 30 -70 32 -36 60 -104 80 -193 9 -44 23 -91 31 -105 8 -15 14 -33 14
-40 0 -20 69 -125 99 -149 14 -11 23 -24 19 -28 -3 -4 0 -21 7 -40 8 -18 11
-36 7 -40 -4 -3 -2 -6 3 -5 25 5 45 -1 45 -14 0 -7 16 -26 35 -40 19 -15 35
-33 35 -40 0 -8 12 -21 26 -31 15 -9 23 -12 20 -6 -4 6 -4 11 0 11 13 0 74
-44 74 -53 0 -5 7 -15 15 -23 8 -9 15 -27 15 -40 0 -29 25 -81 41 -86 9 -3 9
-9 0 -25 -14 -28 -14 -76 1 -91 17 -17 45 -15 52 4 10 26 7 112 -4 116 -6 2
-13 21 -16 43 -6 40 -8 47 -37 115 -29 69 -30 80 -8 80 12 0 21 -6 21 -15 0
-9 18 -33 40 -55 22 -22 40 -43 40 -47 0 -4 10 -20 23 -35 12 -14 30 -36 40
-47 9 -12 17 -26 17 -31 0 -6 5 -10 10 -10 6 0 10 -7 10 -15 0 -8 9 -19 20
-25 11 -6 20 -17 20 -25 0 -8 5 -15 10 -15 6 0 10 -5 10 -11 0 -6 6 -16 13
-23 11 -12 28 -33 89 -115 15 -20 34 -44 42 -53 9 -10 16 -22 16 -26 0 -4 23
-36 50 -70 28 -34 50 -66 50 -70 0 -5 12 -19 26 -33 31 -28 132 -160 159 -206
11 -18 22 -33 26 -33 4 0 18 -25 33 -55 40 -86 33 -107 -26 -76 l-36 18 -6
-36 c-11 -70 -8 -91 15 -91 13 0 19 -5 16 -12 -21 -50 -34 -68 -49 -68 -12 0
-18 -8 -18 -24 0 -13 -6 -26 -14 -29 -9 -4 -15 -30 -18 -79 -5 -65 -3 -76 17
-100 13 -15 24 -25 26 -23 2 2 5 -12 6 -31 2 -19 -2 -34 -7 -34 -6 0 -10 -19
-10 -42 0 -35 -6 -49 -37 -80 -20 -21 -45 -38 -55 -38 -14 0 -18 -8 -18 -40 0
-29 4 -40 15 -40 8 0 15 -4 15 -9 0 -18 62 -71 83 -71 12 0 28 -9 35 -20 7
-11 17 -20 23 -20 6 0 22 -13 35 -30 14 -17 43 -34 65 -40 41 -11 44 -16 30
-39 -6 -10 -29 -12 -92 -10 l-83 4 -19 -37 c-19 -34 -19 -38 -3 -53 24 -25 16
-37 -40 -58 -75 -27 -126 -16 -179 39 -24 24 -48 44 -54 44 -16 0 -35 -42 -33
-72 1 -17 -6 -35 -19 -47 -19 -18 -21 -27 -15 -77 6 -53 5 -58 -22 -84 -16
-14 -38 -42 -50 -61 -12 -20 -30 -44 -42 -54 -24 -22 -27 -77 -4 -95 20 -18
132 -17 173 1 31 13 32 16 27 54 -3 22 0 56 6 77 9 31 8 40 -11 66 -28 39 -27
50 7 64 15 7 41 23 58 35 39 29 43 29 110 -3 40 -19 67 -25 102 -23 42 3 47 1
50 -19 2 -12 10 -22 17 -22 29 0 125 -49 125 -64 0 -8 4 -16 8 -18 5 -1 12
-23 16 -46 6 -39 4 -44 -14 -49 -11 -3 -20 -8 -20 -12 0 -4 -18 -26 -39 -49
l-39 -41 -148 -7 c-107 -4 -153 -10 -165 -20 -8 -8 -22 -14 -29 -14 -31 0 8
-20 51 -26 34 -5 49 -2 61 10 18 17 38 21 38 7 0 -5 35 -17 78 -26 42 -10 81
-21 85 -25 9 -8 11 -54 4 -111 l-4 -36 203 -7 c112 -3 327 -4 476 0 268 7 273
6 291 -14 17 -19 18 -36 15 -177 -2 -125 -6 -158 -18 -165 -8 -5 -86 -10 -172
-10 -95 0 -159 -4 -163 -10 -4 -6 -9 -414 -11 -907 -3 -494 -8 -901 -10 -905
-6 -9 -325 -11 -348 -2 -14 6 -16 95 -16 915 l0 909 -117 -1 c-112 0 -250 -15
-178 -18 23 -1 27 -3 15 -11 -12 -8 -10 -10 10 -11 23 0 23 -1 5 -8 -19 -8
-18 -9 5 -12 l25 -4 -24 -20 c-70 -59 -72 -62 -56 -75 8 -7 15 -23 15 -36 0
-13 5 -24 11 -24 5 0 8 -4 5 -9 -8 -13 -126 -13 -126 0 0 6 -36 -26 -79 -70
-46 -46 -81 -76 -84 -69 -3 10 -10 10 -30 -1 -21 -11 -27 -22 -27 -48 0 -34
-18 -63 -39 -63 -6 0 -11 -3 -12 -7 0 -5 -2 -27 -4 -49 -2 -23 -6 -53 -11 -65
-7 -23 -8 -22 -25 16 -12 27 -14 42 -7 46 6 4 8 20 4 40 -4 19 -6 46 -6 61 0
25 -3 27 -27 23 -49 -9 -58 6 -58 97 0 76 -2 83 -20 83 -11 0 -21 8 -23 18 -2
9 -14 20 -27 23 -15 4 -25 15 -28 32 -7 34 -1 39 23 24 29 -18 37 -15 43 15 7
36 -8 73 -30 74 -12 1 -10 4 7 9 14 4 19 8 13 9 -7 1 -13 7 -13 14 0 9 -19 12
-67 11 -45 -1 -67 -5 -66 -13 2 -6 -6 -11 -17 -11 -11 0 -19 6 -17 13 1 9 -32
13 -135 15 l-138 3 0 -276 0 -275 269 0 c148 0 276 -3 285 -6 14 -5 16 -30 16
-175 0 -163 -1 -169 -22 -180 -16 -9 -76 -10 -224 -5 -111 4 -230 4 -263 0
l-61 -7 0 -273 0 -274 363 -2 362 -3 3 -169 c1 -93 -2 -174 -6 -178 -10 -10
-1067 -12 -1083 -3 -5 4 -9 257 -9 643 0 364 -4 643 -9 651 -8 12 -12 12 -24
2 -9 -6 -26 -11 -39 -10 -53 5 -58 1 -58 -41 0 -34 -3 -40 -21 -40 -19 0 -21
-4 -16 -40 4 -30 2 -40 -9 -40 -10 0 -14 12 -14 40 0 22 5 40 10 40 6 0 10 23
10 50 l0 50 35 0 c22 0 44 8 58 21 13 12 31 19 44 16 19 -3 24 1 28 27 4 17 5
60 3 96 -3 58 -5 65 -23 62 -11 -2 -32 -13 -46 -23 -19 -13 -44 -19 -81 -19
-66 0 -98 -20 -98 -59 0 -30 34 -61 65 -61 9 0 15 -9 15 -25 0 -22 -3 -24 -19
-16 -10 6 -21 17 -25 26 -4 11 -20 15 -60 15 -44 0 -55 4 -59 18 -3 9 -6 -1
-7 -23 -1 -22 -5 -49 -9 -60 -7 -18 -10 -15 -28 20 -20 39 -20 41 -1 83 10 23
25 42 33 42 8 0 15 5 15 10 0 6 -7 10 -15 10 -17 0 -35 59 -35 117 0 23 -5 43
-10 45 -7 2 -4 17 7 38 10 20 17 54 16 80 -2 54 -24 112 -39 102 -6 -4 -86
-159 -178 -344 l-166 -337 61 -138 c34 -76 71 -160 84 -188 13 -27 57 -124 98
-215 42 -91 103 -226 137 -300 94 -205 120 -270 120 -301 0 -33 18 -31 -215
-29 -127 1 -152 4 -166 18 -9 9 -65 132 -124 272 -136 322 -235 554 -239 557
-1 2 -26 -42 -54 -96 l-52 -100 0 -319 c0 -282 -2 -321 -16 -326 -9 -3 -87 -6
-174 -6 -147 0 -160 1 -170 19 -7 13 -10 370 -10 1084 0 978 1 1066 17 1078
23 19 326 20 345 1 10 -10 13 -103 12 -448 0 -238 1 -434 3 -434 2 0 51 96
107 213 234 480 319 652 331 664 8 7 31 13 52 13 21 0 49 3 62 7 22 6 23 9 18
62 -3 31 -10 74 -16 96 -24 96 -34 131 -41 146 -11 22 -11 128 0 150 7 12 7
20 0 24 -5 3 -10 15 -10 26 0 10 -8 28 -17 38 -35 39 -43 50 -43 66 0 8 5 15
10 15 6 0 10 -4 10 -10 0 -5 6 -10 13 -10 16 -1 50 -47 43 -59 -4 -5 3 -7 14
-4 25 7 32 33 28 104 l-3 54 -200 3 c-138 2 -216 7 -251 17 -67 19 -134 79
-165 147 l-24 53 0 700 0 700 31 60 c38 72 63 97 129 127 48 22 61 23 295 23
231 0 248 -1 292 -22 63 -29 112 -78 140 -139 20 -44 23 -68 26 -238 4 -173 2
-191 -14 -203 -12 -9 -53 -13 -128 -13 -166 0 -153 -11 -158 141 -4 160 -10
169 -116 177 -86 6 -137 -3 -163 -29 -18 -18 -19 -38 -19 -584 l0 -566 25 -25
c25 -25 30 -26 126 -22 92 3 103 5 120 27 27 33 26 149 -1 210 -11 24 -20 47
-20 53 0 5 -9 28 -21 51 -34 70 -35 131 -4 225 15 45 31 82 35 82 4 0 13 -22
20 -50 7 -27 16 -50 20 -50 5 0 14 -17 21 -37 7 -21 19 -48 27 -61 8 -12 19
-44 23 -69 5 -26 14 -52 19 -57 5 -5 54 -12 107 -15 l98 -6 3 -170 c2 -142 -1
-182 -17 -243 -18 -69 -18 -75 -3 -91 35 -35 71 -97 77 -134 4 -20 13 -41 20
-45 7 -4 20 -31 28 -60 9 -28 23 -62 31 -74 9 -12 16 -30 16 -40 0 -10 9 -33
19 -52 11 -19 17 -36 15 -39 -3 -3 2 -31 10 -63 21 -83 26 -142 31 -364 4
-174 16 -294 30 -308 3 -3 5 76 5 176 0 128 3 183 12 188 6 4 83 6 170 5 87
-1 193 1 237 5 l79 6 -3 72 c-1 40 -7 82 -14 93 -6 12 -11 38 -11 58 0 20 -7
50 -16 67 -12 22 -15 46 -11 80 4 31 1 60 -8 81 -8 19 -11 44 -8 55 4 16 1 22
-11 22 -10 0 -13 6 -9 15 5 14 7 14 23 0 21 -19 36 -19 44 1 8 20 -22 60 -56
75 -33 13 -57 39 -38 39 9 0 11 18 8 67 -2 36 -2 61 0 55 5 -17 22 -15 22 3 0
8 -4 15 -10 15 -34 0 -53 171 -25 236 12 29 12 45 0 111 -17 90 -30 181 -45
308 -6 50 -15 117 -19 150 -22 157 -22 184 -1 202 21 18 27 53 10 53 -5 0 -16
15 -24 33 -7 19 -26 43 -42 55 -16 12 -40 31 -52 42 -13 11 -30 20 -38 20 -8
0 -30 17 -49 37 -39 42 -34 57 20 67 18 4 35 12 37 18 4 10 22 -4 85 -63 29
-28 36 -11 28 62 -5 42 -15 69 -33 92 -14 18 -27 34 -29 36 -2 3 -9 -1 -15 -7
-7 -7 -16 -12 -20 -12 -10 0 -11 34 0 44 4 4 13 40 19 79 7 40 17 99 23 132
12 69 4 181 -16 243 -9 27 -14 89 -14 170 0 142 -21 307 -45 366 -9 21 -25 97
-35 168 -11 72 -24 136 -29 142 -6 7 -13 32 -16 56 -11 77 -15 90 -30 90 -8 0
-15 6 -15 13 0 8 -8 21 -18 30 -16 15 -18 14 -31 -13 -7 -17 -16 -30 -21 -30
-13 0 -51 128 -86 290 -8 35 -21 74 -28 85 -7 11 -17 35 -20 53 -10 44 -21 40
-36 -13 -22 -78 -29 -62 -45 99 -6 68 -49 199 -73 226 -34 38 -42 50 -42 64 0
16 36 11 60 -10z m1854 10 c28 -11 17 -24 -19 -24 -33 0 -43 8 -28 23 8 9 27
9 47 1z m463 -71 c-2 -23 -15 -34 -76 -66 -41 -20 -80 -45 -87 -55 -12 -16
-13 -16 -20 3 -4 11 -14 24 -22 29 -11 6 -4 14 29 31 24 12 63 32 86 43 23 12
45 26 48 32 3 5 15 10 26 10 16 0 19 -6 16 -27z m-477 -32 c0 -13 9 -20 30
-24 18 -4 30 -13 30 -22 0 -9 11 -20 25 -25 14 -5 25 -15 25 -21 0 -7 9 -9 21
-6 18 5 20 1 17 -26 -3 -29 -7 -32 -40 -35 -35 -3 -38 -1 -56 40 -10 24 -26
49 -35 57 -10 7 -17 19 -17 26 0 7 -7 15 -15 19 -8 3 -15 12 -15 21 0 8 7 15
15 15 8 0 15 -8 15 -19z m-3528 -114 c4 -7 8 -36 8 -65 0 -51 20 -115 59 -192
10 -19 21 -48 25 -65 11 -50 69 -192 123 -300 57 -115 90 -284 62 -312 -14
-14 -28 -78 -35 -161 -7 -78 12 -169 72 -351 31 -90 44 -147 42 -173 l-3 -40
-44 68 c-24 38 -52 81 -62 96 -11 15 -19 32 -19 38 0 5 -4 10 -8 10 -5 0 -23
32 -41 70 -17 39 -36 70 -40 70 -5 0 -11 17 -15 38 -3 22 -21 58 -41 83 -19
24 -37 56 -41 72 -3 15 -13 41 -21 58 -9 17 -20 69 -25 115 -9 80 -8 86 17
128 32 55 43 133 22 161 -15 19 -16 18 -33 -19 -20 -41 -22 -41 -129 -19 -40
8 -40 9 -46 63 -3 30 -5 58 -3 61 3 6 94 35 137 44 26 5 28 9 25 48 -2 35 -7
43 -25 45 -23 3 -29 -11 -24 -62 1 -16 -1 -17 -14 -6 -11 9 -15 9 -15 1 0 -18
-72 -2 -91 21 -9 10 -22 32 -29 49 -16 37 0 79 29 79 37 0 48 70 42 257 0 23
3 52 7 64 16 41 113 59 134 26z m89 -6 c13 -10 50 -30 81 -45 50 -24 138 -98
138 -118 0 -3 9 -17 21 -30 20 -23 57 -102 87 -188 8 -25 24 -64 34 -87 10
-24 18 -53 18 -66 0 -13 5 -28 12 -35 9 -9 9 -12 -2 -13 -8 0 -5 -4 8 -9 20
-8 22 -15 18 -47 -6 -51 -15 -72 -37 -83 -14 -8 -21 -5 -33 12 -9 12 -16 30
-16 40 0 9 -6 21 -13 25 -6 4 -19 22 -27 38 -8 17 -20 37 -26 45 -7 8 -32 51
-55 95 -83 156 -140 249 -196 323 -18 24 -33 52 -33 63 0 10 -4 19 -9 19 -14
0 -23 37 -16 60 8 25 16 25 46 1z m3709 -21 c0 -11 -4 -20 -10 -20 -5 0 -14
-18 -20 -40 -13 -47 -25 -49 -64 -10 -32 33 -28 50 15 50 18 0 33 7 41 20 7
11 18 20 25 20 7 0 13 -9 13 -20z m-2597 -54 c21 -16 22 -39 2 -56 -12 -10
-15 -37 -15 -121 0 -59 -4 -110 -9 -114 -21 -13 -32 36 -26 118 6 72 4 86 -14
112 l-20 29 21 23 c24 26 36 28 61 9z m2159 -18 c21 -21 23 -32 25 -199 1 -97
-1 -196 -5 -220 -7 -38 -9 -27 -16 76 -13 198 -21 255 -36 255 -11 0 -14 93
-3 103 9 10 11 9 35 -15z m196 -39 c-2 -22 -10 -34 -25 -40 -21 -7 -23 -5 -23
21 0 20 5 30 15 30 8 0 15 5 15 10 0 6 5 10 11 10 6 0 9 -14 7 -31z m-2579
-23 c11 -24 12 -36 1 -65 -7 -20 -19 -45 -26 -55 -13 -18 -14 -18 -25 10 -6
16 -14 48 -16 71 -9 72 37 99 66 39z m-419 14 c10 -5 27 -26 39 -45 13 -22 28
-36 39 -34 33 3 42 -1 42 -20 0 -11 4 -21 9 -23 4 -1 11 -31 15 -65 l7 -63
-41 0 c-33 0 -42 4 -52 25 -6 14 -15 25 -20 25 -4 0 -8 8 -8 18 0 18 -49 62
-70 62 -22 0 -50 41 -50 75 0 48 43 70 90 45z m3240 -20 c0 -11 -2 -20 -5 -20
-2 0 -9 9 -15 20 -9 16 -8 20 5 20 8 0 15 -9 15 -20z m-1282 -71 c-1 -13 -7
-23 -13 -22 -13 3 -18 30 -11 50 10 24 29 1 24 -28z m-1148 -54 c0 -11 8 -31
17 -45 16 -22 16 -23 -1 -17 -10 4 -22 7 -27 7 -5 0 -9 24 -9 53 0 37 3 48 10
37 5 -8 10 -24 10 -35z m1470 35 c0 -5 -4 -10 -10 -10 -5 0 -10 5 -10 10 0 6
5 10 10 10 6 0 10 -4 10 -10z m-5560 -75 c0 -8 -7 -15 -15 -15 -9 0 -12 6 -9
15 4 8 10 15 15 15 5 0 9 -7 9 -15z m6565 -74 c3 -11 25 -35 48 -54 72 -59
177 -169 177 -185 0 -9 9 -26 21 -38 12 -12 18 -27 14 -33 -10 -17 -66 -13
-79 5 -13 18 -41 10 -51 -13 -3 -9 -1 -19 5 -23 6 -4 -7 -15 -29 -25 -38 -17
-42 -17 -66 -1 -21 14 -24 20 -14 32 12 15 -1 19 -49 15 -12 -1 -30 3 -40 8
-15 9 -13 12 16 23 l33 13 -4 65 c-2 36 -12 92 -20 125 -14 53 -15 62 -1 82
18 28 31 29 39 4z m-3215 -30 c0 -4 15 -11 34 -14 48 -8 80 -41 65 -68 -7 -14
-16 -18 -27 -14 -37 16 -53 17 -66 6 -12 -10 -17 -8 -26 9 -13 24 -5 90 10 90
6 0 10 -4 10 -9z m-4630 -45 c0 -8 -4 -17 -9 -21 -12 -7 -24 12 -16 25 9 15
25 12 25 -4z m-44 -55 c-8 -13 -36 -15 -36 -3 0 4 5 13 12 20 14 14 34 0 24
-17z m-742 -36 c4 -11 -2 -15 -24 -15 -46 0 -38 20 11 29 4 0 9 -6 13 -14z
m696 0 c0 -8 -7 -15 -15 -15 -16 0 -20 12 -8 23 11 12 23 8 23 -8z m7610 -47
c0 -23 -3 -29 -9 -19 -8 12 -4 51 5 51 2 0 4 -15 4 -32z m-7660 -3 c0 -8 -7
-15 -15 -15 -26 0 -18 20 13 29 1 1 2 -6 2 -14z m-50 -45 c0 -5 -5 -10 -11
-10 -5 0 -7 5 -4 10 3 6 8 10 11 10 2 0 4 -4 4 -10z m7680 -30 c0 -22 -18 -36
-30 -24 -11 12 7 57 20 49 5 -3 10 -15 10 -25z m-7725 -30 c-5 -8 -11 -8 -17
-2 -6 6 -7 16 -3 22 5 8 11 8 17 2 6 -6 7 -16 3 -22z m7985 9 c0 -5 -4 -8 -9
-4 -5 3 -12 1 -16 -5 -10 -15 -35 -12 -35 5 0 10 10 15 30 15 17 0 30 -5 30
-11z m-8030 -44 c0 -8 -4 -15 -10 -15 -5 0 -10 7 -10 15 0 8 5 15 10 15 6 0
10 -7 10 -15z m8047 -26 l28 -11 -27 -14 c-16 -8 -28 -19 -28 -25 0 -6 -21
-19 -47 -30 -27 -11 -58 -25 -69 -31 -12 -5 -29 -8 -39 -6 -14 2 -8 13 31 56
63 71 93 83 151 61z m-8095 -31 c-15 -15 -26 -4 -18 18 5 13 9 15 18 6 9 -9 9
-15 0 -24z m7823 -30 c2 -1 -3 -18 -11 -36 -9 -22 -24 -37 -45 -44 l-31 -11 6
-68 c6 -52 3 -75 -8 -98 -9 -16 -16 -41 -16 -54 0 -13 -9 -32 -20 -42 -16 -14
-19 -26 -15 -47 5 -21 3 -28 -9 -28 -8 0 -26 -12 -40 -26 -14 -16 -30 -24 -39
-21 -13 5 -15 24 -13 109 1 58 8 113 15 126 10 19 10 38 0 92 -20 112 -6 133
101 154 46 10 113 7 125 -6z m-7865 -3 c0 -8 -7 -15 -15 -15 -16 0 -20 12 -8
23 11 12 23 8 23 -8z m-40 -44 c0 -5 -6 -14 -14 -20 -16 -13 -32 2 -21 19 8
12 35 13 35 1z m268 -24 c4 -32 -16 -44 -47 -27 -21 10 -28 40 -14 54 4 4 19
6 33 4 19 -2 26 -10 28 -31z m-328 -27 c0 -5 -5 -10 -11 -10 -5 0 -7 5 -4 10
3 6 8 10 11 10 2 0 4 -4 4 -10z m9140 -90 c0 -5 -4 -10 -10 -10 -5 0 -10 5
-10 10 0 6 5 10 10 10 6 0 10 -4 10 -10z m37 -52 c-3 -8 -6 -5 -6 6 -1 11 2
17 5 13 3 -3 4 -12 1 -19z m-9949 -76 c2 -7 -3 -12 -12 -12 -9 0 -16 7 -16 16
0 17 22 14 28 -4z m542 -12 c0 -5 -5 -10 -11 -10 -5 0 -7 5 -4 10 3 6 8 10 11
10 2 0 4 -4 4 -10z m9510 0 c0 -5 -4 -10 -10 -10 -5 0 -10 5 -10 10 0 6 5 10
10 10 6 0 10 -4 10 -10z m-9540 -44 c0 -2 -7 -6 -15 -10 -8 -3 -15 -1 -15 4 0
6 7 10 15 10 8 0 15 -2 15 -4z m5733 -44 c9 -14 -5 -62 -19 -62 -18 0 -23 11
-17 43 5 25 26 37 36 19z m2247 -95 c0 -23 -17 -47 -32 -47 -10 0 -11 54 -1
63 14 15 33 6 33 -16z m-8125 3 c3 -5 -1 -10 -10 -10 -9 0 -13 5 -10 10 3 6 8
10 10 10 2 0 7 -4 10 -10z m5633 -35 c3 -22 0 -27 -13 -21 -9 3 -21 6 -26 6
-5 0 -9 13 -9 30 0 26 2 28 23 21 14 -5 23 -18 25 -36z m-5960 -297 c-6 -18
-28 -21 -28 -4 0 9 7 16 16 16 9 0 14 -5 12 -12z m5649 -132 c58 -32 103 -88
127 -159 23 -69 24 -412 0 -421 -31 -12 -261 -7 -272 7 -6 6 -12 67 -14 134
-3 109 -5 125 -24 144 -41 40 -215 38 -254 -4 -19 -20 -20 -37 -20 -582 l0
-562 26 -24 c24 -22 34 -24 125 -24 139 0 142 4 149 173 l5 127 145 0 145 0 0
-200 c0 -197 0 -201 -27 -250 -57 -108 -125 -143 -305 -158 -164 -14 -348 1
-416 33 -63 30 -104 72 -136 140 l-26 55 0 700 0 700 27 51 c41 77 105 124
198 145 19 4 139 7 265 6 l230 -2 52 -29z m2945 -140 c4 -6 8 -30 8 -53 0 -50
-20 -58 -40 -15 -7 15 -19 39 -26 54 -11 21 -11 27 -2 31 18 5 51 -4 60 -17z
m532 -185 c6 -10 -39 -32 -48 -24 -3 4 -6 12 -6 20 0 14 46 18 54 4z m-9079
-81 c0 -8 -8 -16 -17 -18 -13 -2 -18 3 -18 18 0 15 5 20 18 18 9 -2 17 -10 17
-18z m733 -219 c-3 -27 -12 -57 -21 -66 -10 -9 -17 -25 -17 -37 0 -11 -5 -18
-11 -16 -6 2 -10 7 -10 11 1 4 1 16 1 27 0 11 6 20 14 20 10 0 17 17 21 55 9
69 29 74 23 6z m-451 -7 c3 -9 1 -24 -5 -33 -7 -9 -19 -31 -27 -50 -9 -19 -39
-59 -67 -89 l-52 -55 -91 -5 c-146 -8 -161 -7 -179 10 -18 18 -18 18 44 51 33
17 62 29 185 72 28 10 77 40 110 66 66 54 73 57 82 33z m8344 -104 c30 0 39
-4 39 -17 1 -16 2 -16 15 2 14 18 16 18 32 2 16 -16 16 -17 0 -17 -13 0 -17
-9 -17 -40 0 -29 -4 -40 -15 -40 -10 0 -15 10 -15 30 0 28 -2 30 -39 30 -44 0
-52 11 -50 68 2 31 3 32 6 10 4 -25 8 -28 44 -28z m223 -99 c3 -4 -1 -17 -9
-27 -14 -18 -14 -18 -15 9 0 26 13 36 24 18z m-7839 -51 c3 -6 0 -13 -8 -16
-8 -3 -17 -14 -20 -25 -3 -10 -13 -19 -24 -19 -10 0 -23 -9 -28 -19 -33 -64
-116 -154 -177 -193 -37 -24 -68 -46 -68 -50 0 -5 -13 -8 -29 -8 -17 0 -60
-11 -98 -24 -37 -13 -89 -27 -115 -31 -26 -3 -60 -12 -75 -20 -15 -8 -74 -21
-130 -29 -90 -13 -105 -14 -130 -1 -36 19 -60 19 -113 0 -55 -19 -87 -19 -166
2 -71 19 -77 32 -32 66 40 30 112 33 178 8 73 -28 189 -28 318 0 161 35 280
94 409 203 19 16 47 30 64 31 16 2 45 14 63 29 19 14 38 26 41 26 3 0 21 11
39 25 18 14 38 25 43 25 6 0 16 7 23 15 14 17 26 19 35 5z m183 -212 c-12 -25
-17 -29 -22 -17 -4 8 -2 28 4 44 8 21 14 25 22 17 9 -9 8 -20 -4 -44z m132
-62 c0 -8 -4 -18 -10 -21 -5 -3 -10 3 -10 14 0 12 5 21 10 21 6 0 10 -6 10
-14z m8556 -103 c13 -8 24 -19 24 -23 0 -15 -45 -37 -60 -29 -8 4 -23 10 -32
13 -18 5 -25 46 -11 60 10 9 49 -1 79 -21z m-5441 -133 c3 -5 1 -10 -4 -10 -6
0 -11 5 -11 10 0 6 2 10 4 10 3 0 8 -4 11 -10z m-3594 -136 c27 -10 44 -51 33
-82 -8 -23 -16 -27 -56 -30 l-46 -3 -4 47 c-3 38 1 51 16 66 11 10 25 16 31
13 5 -3 17 -8 26 -11z m7966 -252 c15 -10 6 -49 -13 -56 -37 -14 -57 20 -28
48 17 18 24 19 41 8z m578 2 c24 -10 37 -50 24 -78 -22 -47 -88 -17 -104 46
-6 22 -3 27 17 31 38 7 46 7 63 1z m-725 -133 c22 -21 40 -43 40 -49 0 -14
-34 -25 -38 -13 -2 6 -10 11 -18 11 -7 0 -11 6 -8 14 4 10 -7 18 -35 27 -55
16 -54 46 1 48 10 1 36 -16 58 -38z m-4760 -115 c23 -10 21 -11 -24 -14 -54
-4 -61 0 -52 23 6 17 22 15 76 -9z m-3576 -21 c18 -28 21 -45 5 -45 -5 0 -29
-9 -52 -19 -55 -25 -105 -33 -141 -23 l-29 8 44 14 c24 7 56 24 71 38 25 23
65 49 79 51 4 1 14 -10 23 -24z m604 -21 c28 -3 52 -9 52 -13 0 -7 -130 -26
-250 -36 -46 -4 -59 -2 -80 16 -24 20 -24 21 -5 35 19 14 130 13 283 -2z
m3068 -4 c15 -6 24 -13 21 -16 -8 -9 -67 6 -67 17 0 12 12 11 46 -1z m199 -45
c11 -4 38 -13 60 -21 74 -27 135 -59 135 -70 0 -28 -120 -32 -190 -8 -70 25
-93 37 -125 66 -16 16 -36 28 -42 28 -7 0 -13 4 -13 9 0 10 145 8 175 -4z
m5300 3 c58 -26 26 -37 -123 -40 -90 -1 -115 1 -122 13 -7 11 1 16 38 25 63
16 175 17 207 2z m-5665 -22 c41 -9 91 -28 111 -41 19 -14 41 -25 48 -25 7 0
11 -9 9 -22 -2 -17 -15 -24 -61 -35 -52 -13 -62 -13 -99 2 -32 13 -58 15 -114
10 -67 -7 -72 -6 -88 16 -21 31 -20 34 9 47 14 6 25 20 25 30 0 10 6 24 13 31
13 14 36 12 147 -13z m5153 13 c13 -1 7 -4 -13 -8 -19 -4 -44 -5 -54 -2 -20 4
-20 4 0 12 10 4 25 6 32 3 8 -2 23 -5 35 -5z m-4157 -134 c34 -34 27 -57 -22
-74 -36 -13 -43 -12 -67 4 -31 20 -29 48 5 78 28 24 55 21 84 -8z m352 -263
c92 -28 174 -116 207 -222 13 -41 19 -106 22 -247 3 -105 3 -203 -1 -217 l-6
-26 -170 0 c-207 0 -194 -11 -192 173 3 182 -11 197 -174 197 -103 0 -144 -13
-166 -53 -10 -17 -14 -165 -16 -662 -2 -352 0 -655 3 -674 4 -18 17 -44 30
-57 23 -23 31 -24 144 -24 114 0 121 1 150 26 l31 26 0 133 c0 74 4 145 10
159 l10 26 165 0 165 0 10 -26 c13 -32 12 -286 0 -384 -18 -141 -86 -237 -206
-292 -47 -22 -59 -23 -334 -23 -275 0 -287 1 -342 23 -65 26 -137 91 -166 148
-41 83 -42 109 -44 944 l-2 805 26 56 c42 91 108 155 198 189 41 15 346 30
495 23 55 -2 124 -12 153 -21z m-3438 2 c103 -30 168 -91 211 -194 22 -52 23
-68 24 -285 l0 -230 -175 0 -175 0 -6 150 c-3 83 -9 158 -13 168 -16 35 -60
47 -176 47 -110 0 -112 0 -141 -29 l-29 -29 0 -680 0 -680 31 -26 c29 -25 37
-26 140 -26 178 0 189 13 189 225 0 112 2 134 16 139 9 3 84 6 169 6 121 0
155 -3 165 -15 9 -10 11 -70 8 -227 -5 -258 -16 -298 -107 -388 -92 -91 -112
-95 -451 -95 l-285 0 -57 27 c-74 35 -141 103 -170 176 l-23 57 -3 814 c-2
721 -1 820 13 868 19 66 51 117 96 158 84 75 129 83 445 84 202 1 261 -2 304
-15z m6077 -390 c-3 -3 -12 -4 -19 -1 -8 3 -5 6 6 6 11 1 17 -2 13 -5z m816
-1 c-7 -2 -21 -2 -30 0 -10 3 -4 5 12 5 17 0 24 -2 18 -5z m-815 -55 c-2 -29
-8 -44 -18 -46 -12 -2 -14 7 -12 43 3 31 9 45 19 45 11 0 13 -11 11 -42z m42
27 c0 -8 5 -15 10 -15 6 0 10 -5 10 -11 0 -6 -9 -8 -22 -3 -30 9 -32 10 -25
29 8 19 27 20 27 0z m-2840 -180 c0 -17 -2 -17 -10 -5 -6 10 -10 11 -10 3 0
-8 -10 -4 -25 9 -23 20 -24 23 -8 29 24 8 53 -11 53 -36z m4304 -61 c5 -23 3
-33 -8 -37 -21 -8 -26 4 -19 47 6 41 17 37 27 -10z m0 -79 c-4 -8 -10 -15 -15
-15 -5 0 -9 7 -9 15 0 8 7 15 15 15 9 0 12 -6 9 -15z m-7097 -27 c-3 -7 -5 -2
-5 12 0 14 2 19 5 13 2 -7 2 -19 0 -25z m1326 -69 c26 3 37 -1 37 -13 0 -20
-33 -26 -81 -15 -32 7 -44 7 -50 -3 -4 -6 -6 -15 -3 -19 2 -4 0 -10 -5 -14
-12 -7 -34 32 -26 45 3 6 14 10 23 10 10 0 33 8 52 19 30 16 36 16 40 4 3 -8
9 -14 13 -14z m84 -31 c-3 -7 -5 -2 -5 12 0 14 2 19 5 13 2 -7 2 -19 0 -25z
m3430 -90 c-3 -8 -6 -5 -6 6 -1 11 2 17 5 13 3 -3 4 -12 1 -19z m-3567 -94 c0
-8 -10 -24 -21 -35 -16 -16 -23 -18 -29 -9 -4 7 -13 9 -19 6 -15 -10 -14 31 1
47 15 17 68 9 68 -9z m-2138 -1696 c3 -11 2 -172 -1 -200 -1 -5 -50 -8 -111
-8 l-110 0 0 -555 0 -555 -109 0 c-90 0 -110 3 -115 16 -3 9 -6 258 -6 555 l0
539 -104 0 c-121 0 -116 -5 -116 110 0 43 3 85 6 94 5 14 44 16 334 16 254 0
329 -3 332 -12z m678 -12 c57 -30 90 -67 105 -120 22 -74 22 -969 0 -1043 -16
-53 -49 -94 -100 -121 -38 -21 -338 -30 -403 -13 -52 14 -97 52 -125 105 -22
40 -22 48 -25 516 -3 338 0 491 8 530 18 85 64 133 150 161 14 4 99 7 190 6
139 -2 171 -5 200 -21z m510 9 c10 -12 12 -131 9 -541 -5 -609 -15 -554 106
-554 57 0 75 4 88 18 15 17 17 73 19 553 l3 534 105 0 105 0 0 -590 c0 -579 0
-591 -21 -630 -11 -22 -41 -53 -65 -70 l-44 -30 -175 -3 c-109 -2 -189 0 -212
7 -50 15 -97 57 -119 106 -17 37 -19 79 -19 621 0 319 3 584 7 587 3 4 50 7
103 7 75 0 100 -4 110 -15z m1175 -7 c44 -24 70 -49 91 -88 17 -32 19 -62 22
-312 2 -183 -1 -291 -8 -318 -7 -28 -28 -59 -58 -89 l-47 -47 47 -180 c26 -98
50 -200 54 -226 l7 -48 -106 0 c-91 0 -108 3 -116 18 -7 14 -93 329 -108 400
-5 20 -11 22 -64 22 l-59 0 0 -220 0 -220 -109 0 c-90 0 -110 3 -115 16 -9 22
-7 1299 1 1308 4 4 127 6 273 4 224 -3 270 -6 295 -20z m577 -203 c42 -121 94
-267 115 -325 73 -208 67 -221 73 185 l5 360 104 3 c77 2 107 -1 113 -10 9
-15 11 -1278 2 -1302 -5 -13 -24 -16 -109 -16 -89 0 -104 2 -110 18 -20 50
-182 502 -213 595 -20 59 -41 107 -46 107 -5 0 -7 -113 -6 -277 2 -153 3 -315
2 -360 l-2 -83 -109 0 -108 0 -7 46 c-8 60 -8 1247 0 1269 5 13 22 15 112 13
l106 -3 78 -220z m1121 218 c3 -5 62 -271 131 -593 70 -322 133 -614 141 -649
7 -36 12 -68 9 -73 -3 -4 -54 -8 -113 -8 l-108 0 -22 113 c-12 61 -24 120 -27
130 -5 16 -19 17 -152 15 l-146 -3 -13 -75 c-8 -41 -18 -99 -24 -127 l-10 -53
-109 0 c-60 0 -111 3 -113 8 -3 4 47 246 109 537 163 761 165 769 177 777 16
10 264 10 270 1z m723 -33 c7 -19 24 -91 38 -160 67 -319 144 -644 149 -630 3
8 45 193 93 410 48 217 91 401 97 408 7 8 48 12 142 12 l133 0 3 -37 c2 -21 3
-321 1 -666 l-3 -628 -107 3 -107 3 -5 390 -5 390 -22 -95 c-20 -84 -119 -536
-138 -630 -11 -54 -21 -60 -91 -60 l-63 0 -11 38 c-5 20 -45 196 -87 391 l-78
354 -5 -389 c-3 -214 -7 -390 -8 -391 -1 -2 -49 -3 -106 -3 -99 0 -104 1 -110
23 -11 41 -7 1267 5 1288 9 18 20 19 142 17 l132 -3 11 -35z m1488 24 c3 -9 6
-56 6 -105 0 -87 -1 -90 -26 -99 -14 -6 -115 -10 -225 -10 l-199 0 0 -160 0
-160 165 0 c152 0 165 -1 175 -19 14 -28 13 -184 -2 -199 -8 -8 -62 -12 -175
-12 l-163 0 0 -165 0 -165 218 -2 217 -3 3 -108 3 -107 -328 2 -328 3 -5 646
c-3 355 -4 653 -2 662 3 16 33 17 332 17 290 0 329 -2 334 -16z m386 -4 c6
-11 32 -82 59 -157 27 -76 72 -203 101 -283 28 -80 58 -165 66 -190 8 -25 18
-52 22 -60 4 -8 9 147 12 345 l5 360 110 0 110 0 0 -660 0 -660 -106 -3 -105
-3 -97 268 c-53 147 -111 311 -129 363 l-33 95 -5 -360 c-3 -198 -7 -361 -8
-362 -1 -2 -51 -3 -112 -3 l-110 0 0 665 0 665 105 0 c94 0 105 -2 115 -20z
m1285 -2 c3 -13 5 -61 3 -108 l-3 -85 -107 -3 -108 -3 -2 -552 -3 -552 -112
-3 -113 -3 -2 553 -3 553 -105 5 -105 5 -3 94 c-1 52 -1 100 2 108 4 10 70 13
330 13 l326 0 5 -22z m-4990 -1743 c20 -19 25 -34 25 -75 l0 -50 -40 0 c-39 0
-40 1 -40 35 0 19 -3 36 -7 36 -54 9 -58 5 -61 -46 l-3 -50 73 -25 73 -25 3
-86 c2 -74 0 -89 -18 -112 -20 -25 -27 -27 -94 -27 -63 0 -75 3 -95 24 -18 19
-22 33 -19 72 3 49 3 49 38 49 33 0 35 -2 38 -38 3 -36 5 -38 35 -35 31 3 32
4 32 52 0 46 -2 50 -30 58 -16 5 -49 16 -72 24 l-43 16 0 92 c0 122 11 136
111 136 61 0 73 -3 94 -25z m305 -10 l0 -35 -75 0 -75 0 0 -60 0 -60 60 0 60
0 0 -35 0 -35 -60 0 -60 0 0 -60 0 -60 75 0 75 0 0 -35 0 -35 -110 0 c-98 0
-110 2 -110 18 0 9 -2 108 -4 218 -3 111 -2 205 1 208 4 3 55 6 115 6 l108 0
0 -35z m245 23 c4 -10 43 -183 92 -410 5 -27 4 -28 -35 -28 -40 0 -40 0 -47
45 l-6 46 -52 -3 -51 -3 -9 -42 c-8 -42 -9 -43 -47 -43 l-38 0 25 113 c13 61
33 153 43 202 11 50 22 100 25 113 5 19 12 22 51 22 26 0 47 -5 49 -12z m355
-10 c15 -16 20 -35 20 -75 l0 -54 -37 3 c-34 3 -38 6 -41 33 -5 39 -15 49 -46
41 -23 -6 -26 -11 -26 -55 l0 -48 75 -22 75 -23 0 -94 c0 -123 -9 -134 -113
-134 -93 0 -111 15 -112 93 l0 52 35 0 c32 0 35 -3 40 -35 4 -31 9 -35 38 -38
l33 -3 -3 52 -3 52 -62 21 c-34 12 -67 26 -74 33 -7 7 -10 41 -8 98 5 111 18
125 120 125 57 0 71 -3 89 -22z m281 3 c24 -19 24 -22 24 -204 0 -228 0 -227
-112 -227 -114 0 -113 -1 -113 223 0 225 1 227 109 227 53 0 74 -4 92 -19z
m189 -73 c57 -170 58 -170 59 -30 l1 123 38 -3 37 -3 0 -220 0 -220 -36 -3
-37 -3 -43 123 -44 123 -3 -122 -3 -123 -39 0 -40 0 0 218 c0 120 3 222 7 225
3 4 21 7 39 7 32 0 33 -1 64 -92z m565 67 c23 -22 25 -32 25 -113 l0 -88 -66
-37 c-37 -20 -71 -37 -75 -37 -5 0 -9 -18 -9 -40 0 -39 1 -40 35 -40 24 0 35
5 35 15 0 11 11 15 40 15 l40 0 0 -50 0 -50 -115 0 -115 0 0 89 c0 61 4 94 13
103 8 7 41 26 75 42 l62 30 0 53 c0 47 -2 53 -24 59 -35 8 -46 -2 -46 -42 0
-35 -1 -35 -37 -32 l-38 3 0 54 c1 73 23 91 112 91 55 0 67 -4 88 -25z m-257
-216 c4 -35 -19 -51 -70 -47 -36 3 -44 7 -46 26 -7 45 4 53 60 50 49 -3 53 -5
56 -29z m-2877 -527 c29 -32 29 -32 29 -166 l0 -134 -107 -58 -108 -59 -3 -52
-3 -53 55 0 c53 0 56 1 56 26 0 24 2 25 53 22 l52 -3 3 -77 3 -78 -166 0 -166
0 3 143 3 142 108 59 107 58 0 67 c0 74 -10 91 -51 91 -51 0 -59 -8 -59 -61
l0 -49 -55 0 -55 0 0 70 c0 128 28 152 173 148 97 -3 99 -3 128 -36z m386 28
c50 -18 63 -54 63 -178 0 -87 -3 -114 -16 -126 -8 -9 -20 -16 -26 -16 -6 0 1
-9 16 -21 25 -20 26 -24 26 -130 0 -168 -19 -189 -165 -189 -146 0 -165 21
-165 190 0 97 2 112 20 127 19 17 19 17 0 35 -18 17 -20 32 -20 132 0 101 2
116 21 140 12 15 31 32 43 36 30 12 167 12 203 0z m507 -7 c2 -10 24 -105 47
-211 24 -106 46 -187 49 -180 4 7 26 102 50 211 l43 197 68 0 c45 0 69 -4 72
-12 2 -7 2 -152 0 -323 -2 -170 -4 -316 -3 -322 0 -14 -99 -19 -101 -5 0 4 -1
87 -1 185 -1 174 -9 225 -23 149 -8 -49 -54 -257 -66 -304 -9 -35 -13 -38 -44
-38 l-33 0 -25 108 c-14 59 -34 148 -44 197 l-18 90 -5 -195 -5 -195 -52 -3
-53 -3 0 335 0 336 69 0 c58 0 71 -3 75 -17z m714 -95 c13 -62 30 -140 37
-173 34 -145 75 -345 75 -365 0 -19 -5 -21 -52 -18 -58 3 -51 -7 -74 106 -4
20 -10 22 -79 22 -83 0 -75 7 -93 -85 l-8 -40 -58 -3 -58 -3 7 28 c10 41 82
368 112 516 l27 127 71 0 70 0 23 -112z m327 -8 c26 -66 51 -120 55 -120 5 0
15 19 23 43 8 23 29 77 47 120 l32 77 54 0 c30 0 54 -4 54 -9 0 -5 -34 -91
-75 -191 l-76 -183 -4 -131 c-3 -72 -5 -137 -5 -144 0 -9 -14 -12 -52 -10
l-53 3 -5 150 c-5 141 -7 154 -36 220 -47 106 -114 272 -114 284 0 7 23 11 54
11 l54 0 47 -120z m803 109 c51 -18 64 -49 70 -169 7 -164 21 -144 -178 -252
-44 -24 -45 -26 -45 -74 l0 -49 52 -3 c47 -3 52 -1 55 20 3 20 9 23 56 26 28
2 52 -1 52 -5 1 -4 3 -25 6 -46 3 -22 3 -54 -1 -73 l-6 -34 -165 0 -165 0 3
142 3 141 31 17 c16 10 64 35 105 58 l74 40 3 72 c3 81 -2 90 -53 90 -42 0
-55 -16 -55 -67 l0 -43 -56 0 -56 0 3 79 c4 83 19 113 64 132 29 12 167 11
203 -2z m427 -3 c57 -24 60 -38 63 -285 4 -257 0 -301 -33 -339 -23 -26 -26
-27 -134 -27 -107 0 -111 1 -138 28 l-28 27 0 274 c0 260 1 275 20 296 11 12
29 26 40 31 34 13 173 10 210 -5z m432 -6 c42 -25 53 -67 53 -201 0 -124 6
-116 -127 -183 -92 -47 -103 -58 -103 -101 0 -46 9 -55 60 -55 43 0 49 3 52
23 3 20 9 22 58 22 l55 0 0 -75 0 -75 -167 -3 -168 -2 0 139 0 140 110 62 111
61 -3 77 -3 76 -42 3 c-34 3 -44 -1 -53 -18 -6 -11 -10 -28 -9 -38 5 -49 1
-52 -56 -52 l-55 0 0 68 c0 74 23 126 63 142 12 5 60 9 107 9 67 1 92 -3 117
-19z m420 0 c40 -24 53 -67 53 -183 0 -80 -2 -90 -25 -113 -19 -19 -21 -26
-11 -30 27 -11 39 -61 34 -158 -6 -144 -28 -166 -170 -166 -126 0 -168 30
-168 120 l0 40 55 0 c52 0 55 -1 55 -25 0 -24 3 -25 55 -25 l56 0 -3 83 -3 82
-67 3 c-60 3 -67 5 -72 26 -3 13 -3 38 0 55 6 30 8 30 73 33 l66 3 3 83 3 83
-53 -3 c-46 -3 -53 -6 -56 -25 -3 -21 -9 -23 -58 -23 l-54 0 0 40 c0 92 39
119 170 120 67 0 92 -4 117 -20z m-4327 -1327 c18 -87 35 -168 38 -180 4 -20
0 -23 -26 -23 -28 0 -32 4 -38 36 -6 34 -8 35 -48 32 -37 -3 -41 -6 -46 -33
-4 -25 -10 -30 -38 -33 -29 -3 -33 -1 -29 15 3 10 20 86 37 168 17 83 33 156
35 163 3 7 21 12 43 12 l39 0 33 -157z m255 147 c12 -20 -6 -49 -33 -52 l-27
-3 -3 -147 -3 -148 -29 0 -30 0 0 149 0 150 -27 3 c-22 2 -29 9 -31 31 l-3 27
90 0 c50 0 93 -5 96 -10z m206 -32 c3 -104 2 -103 32 -106 l27 -3 0 75 0 76
30 0 c27 0 30 -3 30 -32 2 -156 2 -296 1 -310 -1 -13 -10 -18 -31 -18 l-30 0
0 76 0 75 -27 -3 c-27 -3 -28 -4 -29 -73 -2 -70 -2 -70 -30 -70 l-29 0 -3 178
-2 177 30 0 c29 0 30 -2 31 -42z m331 25 c16 -14 18 -33 18 -160 0 -130 -2
-145 -20 -163 -25 -25 -105 -27 -138 -4 -21 14 -22 22 -22 160 0 81 5 154 10
165 9 16 22 19 72 19 43 0 67 -5 80 -17z m155 -73 l32 -85 3 85 3 85 33 3 32
3 0 -181 0 -181 -31 3 c-30 3 -33 8 -65 93 -18 50 -33 86 -34 80 -1 -5 -2 -46
-3 -90 l-2 -80 -32 -3 -33 -3 0 181 0 181 32 -3 c31 -3 34 -7 65 -88z m239 -5
l33 -90 0 93 1 92 30 0 30 0 0 -180 0 -180 -28 0 c-25 0 -29 6 -56 83 -16 45
-33 86 -37 91 -5 6 -9 -30 -9 -82 l0 -92 -30 0 -30 0 0 181 0 180 31 -3 c30
-3 34 -8 65 -93z m297 73 c15 -60 67 -310 67 -323 0 -10 -10 -15 -30 -15 -25
0 -30 4 -36 35 -6 33 -9 35 -45 35 -36 0 -39 -2 -45 -35 -5 -30 -10 -35 -35
-35 -37 0 -37 3 6 197 19 86 35 158 35 160 0 2 18 3 39 3 32 0 40 -4 44 -22z
m281 6 c10 -9 16 -33 16 -60 0 -44 -1 -45 -27 -42 -22 2 -29 9 -31 31 -3 22
-8 27 -32 27 l-29 0 -3 -104 c-4 -133 -3 -136 33 -136 27 0 29 2 29 40 0 29
-4 40 -15 40 -10 0 -15 10 -15 30 0 29 2 30 45 30 l45 0 0 -84 c0 -105 -8
-116 -89 -116 -93 0 -95 4 -99 170 -4 181 0 190 93 190 44 0 68 -5 79 -16z
m250 -151 c20 -93 36 -174 36 -180 0 -8 -13 -13 -30 -13 -25 0 -30 4 -36 35
-6 33 -9 35 -44 35 -39 0 -50 -11 -50 -51 0 -15 -7 -19 -31 -19 l-32 0 7 47
c3 27 13 75 20 108 8 33 22 93 31 133 l17 72 38 0 37 0 37 -167z m171 78 l30
-84 3 86 3 87 34 0 35 0 0 -181 0 -180 -32 3 c-32 3 -34 6 -65 93 l-32 90 0
-92 -1 -93 -35 0 -35 0 0 181 0 180 32 -3 c31 -3 34 -7 63 -87z m300 67 c44
-200 65 -302 65 -318 0 -16 -7 -20 -30 -20 -23 0 -30 5 -30 19 0 40 -11 51
-50 51 -35 0 -38 -2 -44 -35 -6 -31 -11 -35 -36 -35 -21 0 -30 5 -30 16 0 8
16 87 35 175 19 88 35 162 35 165 0 2 18 4 40 4 33 0 40 -4 45 -22z m283 -5
c-2 -22 -9 -29 -30 -31 l-28 -3 0 -150 0 -149 -30 0 c-39 0 -43 16 -38 174 l3
126 -26 0 c-17 0 -28 6 -31 18 -10 37 1 42 93 42 l90 0 -3 -27z m202 -3 c0
-25 -4 -30 -25 -30 l-25 0 0 -150 0 -150 -35 0 -35 0 0 149 0 150 -27 3 c-22
2 -29 9 -31 31 l-3 27 90 0 91 0 0 -30z m100 -150 l0 -180 -30 0 -30 0 0 180
0 180 30 0 30 0 0 -180z m334 164 c10 -9 16 -33 16 -60 0 -42 -1 -44 -30 -44
-27 0 -30 3 -30 30 0 28 -3 30 -35 30 l-36 0 3 -117 3 -118 30 0 c27 0 30 3
33 38 2 28 0 37 -12 37 -11 0 -16 9 -16 30 0 29 2 30 45 30 l45 0 0 -84 c0
-76 -2 -86 -22 -100 -13 -10 -43 -16 -73 -16 -30 0 -60 6 -73 16 -21 14 -22
22 -22 164 0 178 1 180 95 180 44 0 68 -5 79 -16z m230 0 c22 -22 22 -170 1
-202 -16 -21 -14 -36 11 -125 5 -16 1 -18 -27 -15 -31 3 -34 6 -47 61 -20 79
-42 78 -42 -3 l0 -60 -35 0 -35 0 0 180 0 180 79 0 c59 0 84 -4 95 -16z m230
-6 c13 -18 16 -51 16 -151 0 -170 -8 -187 -97 -187 -86 0 -97 25 -91 212 4
142 8 148 94 148 54 0 65 -3 78 -22z m118 -125 l3 -148 25 0 25 0 3 148 3 147
29 0 30 0 0 -164 c0 -159 -1 -165 -22 -180 -33 -23 -113 -21 -138 4 -18 18
-20 33 -20 180 l0 160 30 0 29 0 3 -147z m259 50 l34 -98 3 98 3 97 29 0 30 0
0 -180 0 -180 -29 0 c-31 0 -33 4 -82 145 l-14 40 -3 -92 -3 -93 -29 0 -30 0
0 180 0 180 28 0 c27 0 31 -5 63 -97z m316 67 c10 -18 13 -65 11 -163 -4 -168
-5 -169 -113 -165 l-70 3 -3 178 -2 178 82 -3 c76 -3 83 -5 95 -28z"/>
<path d="M8365 8720 c-19 -7 -19 -8 5 -18 14 -5 28 -8 33 -5 4 2 7 -3 7 -11 0
-10 9 -16 23 -16 21 1 21 1 3 15 -10 7 -15 18 -11 24 3 6 2 11 -4 11 -5 0 -15
2 -23 4 -7 3 -22 1 -33 -4z"/>
<path d="M8660 8445 c0 -14 5 -25 10 -25 6 0 10 11 10 25 0 14 -4 25 -10 25
-5 0 -10 -11 -10 -25z"/>
<path d="M8150 8425 c-5 -14 -10 -28 -10 -31 0 -3 -9 -17 -20 -32 -18 -24 -20
-39 -17 -112 3 -64 9 -94 26 -120 11 -19 21 -43 21 -52 0 -10 6 -18 14 -18 15
0 30 56 20 72 -4 6 -8 50 -10 99 -2 85 -1 91 23 113 15 14 26 35 26 51 0 30
-8 40 -40 50 -19 5 -25 1 -33 -20z"/>
<path d="M8201 8014 c0 -11 3 -14 6 -6 3 7 2 16 -1 19 -3 4 -6 -2 -5 -13z"/>
<path d="M8573 7673 c-24 -9 -13 -21 27 -28 50 -8 100 2 100 21 0 11 -14 14
-57 13 -32 0 -64 -3 -70 -6z"/>
<path d="M8636 7555 c-11 -8 -34 -15 -50 -15 -17 0 -45 -8 -62 -19 -16 -10
-70 -25 -120 -32 l-89 -14 164 -3 c158 -2 164 -2 183 20 19 22 21 69 3 74 -5
2 -19 -3 -29 -11z"/>
<path d="M2196 4474 c-14 -13 -16 -67 -16 -433 0 -374 2 -420 16 -432 26 -21
149 -25 179 -5 l25 16 0 420 c0 367 -2 420 -16 434 -11 12 -36 16 -94 16 -58
0 -83 -4 -94 -16z"/>
<path d="M3840 4271 l0 -221 99 0 c77 0 103 4 115 16 23 22 23 369 1 399 -13
16 -30 20 -115 23 l-100 4 0 -221z"/>
<path d="M5741 4393 c-1 -15 -91 -502 -98 -530 -5 -23 -4 -23 101 -23 105 0
106 0 101 23 -3 12 -25 135 -50 272 -44 242 -53 283 -54 258z"/>
<path d="M5261 2787 c-7 -40 -15 -82 -18 -94 -5 -21 -1 -23 31 -23 24 0 36 5
36 14 0 18 -29 168 -33 172 -1 2 -9 -29 -16 -69z"/>
<path d="M5836 2885 c-8 -21 -8 -258 0 -279 4 -10 18 -16 40 -16 l35 0 -3 153
-3 152 -31 3 c-22 2 -33 -2 -38 -13z"/>
<path d="M3814 2117 c-3 -8 -4 -45 -2 -83 l3 -69 50 0 50 0 0 80 0 80 -48 3
c-33 2 -49 -1 -53 -11z"/>
<path d="M3814 1837 c-3 -8 -4 -45 -2 -83 l3 -69 50 0 50 0 3 74 c2 53 -1 77
-10 82 -21 14 -88 10 -94 -4z"/>
<path d="M5082 2030 c-6 -30 -16 -84 -22 -120 -6 -36 -13 -75 -15 -87 -5 -22
-2 -23 50 -23 l55 0 -7 33 c-4 17 -16 82 -28 142 l-21 110 -12 -55z"/>
<path d="M6587 2123 c-9 -8 -9 -406 -1 -427 9 -23 99 -23 108 0 3 9 6 103 6
209 0 106 -3 200 -6 209 -4 12 -20 16 -53 16 -26 0 -51 -3 -54 -7z"/>
<path d="M3187 917 c-4 -26 -9 -58 -13 -72 -5 -22 -3 -25 21 -25 27 0 27 0 20
53 -12 84 -21 98 -28 44z"/>
<path d="M3960 869 l0 -120 28 3 27 3 3 118 3 117 -31 0 -30 0 0 -121z"/>
<path d="M4697 897 c-3 -24 -9 -51 -13 -60 -5 -13 0 -17 21 -17 27 0 28 1 21
46 -3 26 -6 53 -6 60 0 33 -18 10 -23 -29z"/>
<path d="M5195 905 c-4 -32 -9 -64 -12 -72 -4 -9 3 -13 22 -13 l27 0 -7 58
c-10 84 -21 94 -30 27z"/>
<path d="M5694 880 l-10 -60 29 0 c23 0 28 3 23 17 -4 9 -10 36 -13 60 -3 24
-9 43 -12 43 -4 0 -12 -27 -17 -60z"/>
<path d="M6800 930 c0 -61 0 -61 28 -58 26 3 27 5 27 58 0 53 -1 55 -27 58
-28 3 -28 3 -28 -58z"/>
<path d="M7030 870 l0 -121 28 3 27 3 0 115 0 115 -27 3 -28 3 0 -121z"/>
<path d="M7720 870 c0 -120 0 -120 24 -120 31 0 36 15 36 120 0 105 -5 120
-36 120 -24 0 -24 0 -24 -120z"/>
<path d="M7645 13833 c-54 -38 -75 -66 -108 -143 -36 -85 -34 -131 7 -141 34
-9 46 -24 46 -58 0 -24 8 -32 135 -146 37 -33 90 -81 117 -106 36 -34 61 -49
90 -53 76 -12 148 14 148 54 0 13 15 20 60 30 33 7 63 17 66 21 7 12 101 11
109 -1 11 -19 26 -10 39 23 11 26 11 50 1 135 -15 119 -26 136 -111 178 -48
23 -53 29 -56 62 -5 60 -56 54 -61 -8 -2 -27 -8 -35 -29 -41 -35 -9 -49 20
-19 40 23 15 27 57 8 81 -16 21 -77 45 -104 42 -13 -2 -30 4 -39 13 -15 14
-18 13 -44 -13 -15 -16 -29 -34 -31 -41 -5 -14 -80 -27 -104 -17 -14 5 -14 8
1 31 16 24 15 26 -16 55 -40 37 -55 37 -105 3z m514 -349 c11 -11 -36 -33 -59
-28 -39 8 -46 22 -19 33 22 9 67 6 78 -5z"/>
<path d="M4511 13831 c-22 -39 -4 -157 22 -148 6 2 15 21 19 43 5 21 13 49 20
62 9 17 9 28 2 40 -16 25 -51 27 -63 3z"/>
<path d="M6080 13775 c-8 -9 -9 -25 -4 -47 13 -51 12 -53 -33 -50 -37 3 -43 1
-43 -16 0 -11 6 -22 13 -25 9 -3 8 -15 -6 -53 -9 -27 -17 -56 -17 -65 0 -9 -7
-22 -16 -30 -14 -12 -14 -14 2 -26 16 -11 22 -9 46 18 41 44 58 83 65 142 3
29 14 67 24 85 24 42 24 59 0 71 -14 8 -22 7 -31 -4z"/>
<path d="M4697 13673 c-9 -8 -9 -136 -1 -157 9 -23 31 -20 39 4 8 24 -13 160
-24 160 -4 0 -11 -3 -14 -7z"/>
<path d="M4722 13448 c-6 -6 -12 -24 -12 -39 0 -21 6 -28 26 -32 29 -5 37 7
32 50 -3 30 -26 41 -46 21z"/>
<path d="M4100 12918 c0 -126 16 -120 24 10 6 79 5 92 -9 92 -12 0 -15 -17
-15 -102z"/>
<path d="M4033 12724 c-3 -9 -3 -57 1 -108 6 -83 4 -93 -14 -108 -17 -15 -20
-30 -19 -113 0 -52 4 -97 9 -100 11 -7 17 16 29 123 5 48 15 90 24 100 17 19
33 157 23 197 -7 29 -43 35 -53 9z"/>
<path d="M4801 12668 c-1 -16 4 -28 9 -28 12 0 12 8 0 35 -8 18 -9 17 -9 -7z"/>
<path d="M3965 12259 c-4 -6 -4 -13 -1 -16 3 -4 -3 -16 -14 -28 -19 -20 -19
-24 -6 -56 16 -38 58 -79 81 -79 9 0 20 12 26 28 9 24 7 30 -20 53 -17 14 -31
32 -31 41 0 9 -7 21 -15 28 -13 11 -13 14 2 26 17 12 17 13 1 14 -9 0 -20 -5
-23 -11z"/>
<path d="M3667 11998 c-20 -15 -48 -22 -95 -25 -37 -3 -71 -9 -76 -14 -11 -10
11 -39 29 -39 7 0 18 -23 25 -52 19 -85 20 -88 41 -88 30 0 89 33 134 75 22
20 55 49 74 65 25 21 31 33 26 49 -15 49 -109 66 -158 29z"/>
<path d="M940 11955 c7 -9 15 -13 17 -11 7 7 -7 26 -19 26 -6 0 -6 -6 2 -15z"/>
<path d="M4340 11930 c0 -5 -9 -10 -21 -10 -12 0 -34 -10 -49 -22 -15 -13 -36
-28 -46 -35 -19 -12 -19 -13 0 -28 27 -21 39 -19 67 9 46 45 75 96 54 96 -3 0
-5 -4 -5 -10z"/>
<path d="M10395 11799 c-43 -20 -100 -25 -110 -9 -12 19 -22 10 -33 -27 -20
-63 -29 -72 -47 -45 -18 25 -45 30 -45 8 0 -23 11 -46 20 -41 5 3 12 -5 16
-17 4 -13 12 -26 17 -30 6 -4 11 -19 12 -35 0 -15 6 -27 12 -26 7 2 16 -27 23
-70 6 -40 18 -90 26 -113 11 -31 12 -48 4 -68 -12 -33 -4 -72 17 -80 8 -4 29
1 47 10 17 8 38 17 46 19 46 10 68 26 74 52 4 15 18 51 31 78 13 28 26 67 30
88 11 70 77 87 83 21 3 -40 9 -41 43 -6 17 18 37 32 44 32 7 0 24 9 38 20 14
11 34 20 45 20 11 0 30 9 43 20 l24 20 -25 20 c-14 11 -32 20 -40 20 -21 0
-40 20 -40 41 0 16 -106 89 -130 89 -6 0 -25 7 -42 16 -25 13 -36 14 -56 4
-17 -7 -28 -8 -36 0 -15 15 -45 11 -91 -11z m-75 -285 c0 -14 -3 -14 -15 -4
-8 7 -15 14 -15 16 0 2 7 4 15 4 8 0 15 -7 15 -16z"/>
<path d="M4241 11774 c0 -11 3 -14 6 -6 3 7 2 16 -1 19 -3 4 -6 -2 -5 -13z"/>
<path d="M3280 11716 c0 -9 7 -16 16 -16 9 0 14 5 12 12 -6 18 -28 21 -28 4z"/>
<path d="M3320 11670 c0 -5 5 -10 10 -10 6 0 10 5 10 10 0 6 -4 10 -10 10 -5
0 -10 -4 -10 -10z"/>
<path d="M3993 11650 c-18 -17 -36 -42 -39 -56 -7 -26 10 -54 31 -54 8 0 15
-6 18 -12 15 -42 51 70 40 125 -7 34 -11 34 -50 -3z"/>
<path d="M5144 11489 c-26 -51 -66 -167 -78 -224 -4 -16 -15 -52 -25 -80 -10
-27 -33 -104 -51 -170 -18 -66 -36 -124 -40 -130 -8 -11 -50 -130 -50 -144 0
-5 -13 -23 -30 -41 -16 -17 -42 -55 -57 -83 -19 -36 -35 -53 -50 -55 -45 -7
-37 -97 9 -104 36 -5 44 -71 23 -189 -9 -53 -18 -120 -19 -148 -3 -61 -10 -70
-38 -52 -19 12 -23 11 -35 -5 -7 -10 -13 -26 -13 -36 0 -9 -9 -32 -20 -50 -11
-18 -20 -41 -20 -50 0 -9 -11 -27 -24 -40 -33 -32 -42 -65 -19 -71 23 -6 441
-2 448 5 3 2 7 18 11 34 4 21 0 35 -14 50 -15 16 -19 33 -17 65 1 24 -2 50 -8
57 -6 8 -6 16 1 25 5 6 17 55 26 107 17 96 33 170 66 315 32 139 39 195 45
390 7 189 18 299 50 490 14 81 15 108 6 143 -17 60 -43 57 -77 -9z m-337 -991
c-2 -13 -4 -3 -4 22 0 25 2 35 4 23 2 -13 2 -33 0 -45z"/>
<path d="M3270 11341 c-56 -40 -107 -71 -116 -71 -6 0 -23 -13 -39 -30 -28
-29 -28 -31 -13 -63 8 -17 18 -46 22 -63 4 -16 18 -52 31 -79 14 -26 25 -54
25 -62 0 -22 29 -14 35 10 3 12 10 42 16 67 6 25 17 70 24 100 7 30 24 78 38
105 36 71 42 105 20 104 -10 0 -29 -8 -43 -18z"/>
<path d="M3830 11305 c-8 -41 -9 -64 -1 -87 6 -17 11 -58 11 -92 0 -33 7 -109
16 -169 9 -60 13 -119 10 -133 -10 -37 -34 -29 -46 16 -6 22 -15 40 -19 40 -5
0 -14 15 -22 33 -7 17 -20 44 -30 58 -10 14 -21 38 -25 55 -4 16 -16 43 -26
59 -10 17 -18 39 -18 50 0 11 -11 40 -25 64 -14 23 -25 51 -25 60 0 9 -7 26
-15 37 -14 17 -15 14 -11 -46 2 -36 14 -101 26 -145 14 -54 19 -91 15 -115 -4
-19 -8 -55 -8 -80 -2 -46 1 -54 101 -255 44 -91 74 -182 67 -205 -3 -10 -16
-21 -28 -24 -18 -5 -33 6 -82 58 -47 50 -64 77 -79 125 -26 85 -83 201 -104
208 -9 4 -21 11 -25 17 -4 6 -5 -7 -2 -29 4 -22 11 -78 15 -125 5 -47 14 -103
19 -125 25 -102 40 -154 59 -200 11 -27 28 -79 37 -115 10 -36 40 -130 66
-210 48 -140 59 -203 40 -215 -10 -6 -41 21 -41 36 0 5 -7 9 -15 9 -19 0 -20
-38 0 -60 9 -10 16 -46 19 -95 19 -280 19 -282 5 -314 -8 -17 -17 -31 -20 -31
-14 0 -18 -46 -7 -88 12 -47 2 -78 -31 -99 -19 -12 -79 -2 -139 24 -18 8 -38
12 -45 9 -9 -3 -8 -5 1 -5 7 -1 10 -6 6 -12 -3 -6 0 -22 7 -36 13 -23 12 -27
-9 -41 -36 -24 -26 -31 45 -34 55 -2 68 -6 71 -20 4 -22 -125 -108 -162 -108
-20 0 -26 -5 -26 -21 0 -31 -35 -75 -72 -89 -36 -15 -100 -74 -111 -104 -6
-14 1 -26 25 -46 l33 -28 1 -178 c1 -154 -2 -187 -19 -239 -11 -35 -21 -95
-23 -145 -3 -98 -9 -161 -26 -278 -12 -89 -28 -112 -76 -112 -43 0 -13 -18 42
-24 36 -5 56 -13 61 -23 6 -17 -10 -33 -32 -33 -19 0 -63 -22 -63 -32 0 -4 6
-8 13 -8 26 0 47 -35 45 -73 -2 -21 -7 -38 -13 -39 -5 0 22 -4 60 -8 112 -12
343 -11 350 0 4 6 8 35 10 65 1 30 12 72 24 95 11 22 21 49 21 59 0 11 9 41
21 68 12 26 27 66 34 88 7 22 30 78 50 125 20 47 41 106 45 132 5 27 12 54 17
60 13 21 63 170 73 218 12 60 47 150 69 175 16 19 42 78 76 175 9 25 23 81 30
124 8 43 21 89 30 102 8 13 18 56 21 96 4 40 14 86 24 103 11 19 20 63 24 123
6 89 5 96 -19 137 -33 57 -32 81 5 115 30 28 30 29 30 139 0 66 -5 121 -12
137 -10 22 -10 28 0 32 8 2 12 26 12 70 0 74 5 88 35 94 14 2 20 12 21 33 3
67 5 76 22 93 17 17 27 18 83 10 44 -7 73 -6 93 2 l30 11 -30 15 c-16 8 -38
23 -49 32 -11 10 -37 26 -57 36 -36 18 -66 17 -128 -7 -22 -9 -72 67 -73 111
-1 28 6 41 36 68 38 35 47 67 27 104 -8 15 -5 23 16 39 l27 21 -24 0 c-12 0
-33 9 -45 21 l-22 20 -42 -23 c-24 -13 -52 -29 -64 -35 -37 -22 -96 -9 -96 21
0 7 -9 21 -20 31 -21 19 -26 50 -10 60 6 3 10 0 10 -7 0 -7 4 -20 10 -28 7
-12 12 -12 29 4 29 26 29 116 1 171 -11 22 -20 51 -19 65 0 14 -6 79 -15 145
-9 65 -16 123 -16 127 0 4 -7 8 -16 8 -14 0 -16 9 -10 69 7 72 0 141 -14 141
-5 0 -14 -25 -20 -55z m-70 -1527 c0 -19 -2 -20 -10 -8 -13 19 -13 30 0 30 6
0 10 -10 10 -22z"/>
<path d="M4753 11189 c-18 -5 -33 -14 -33 -19 0 -6 -14 -9 -32 -8 -29 3 -34
-1 -56 -47 -13 -27 -34 -58 -46 -70 -20 -18 -39 -50 -37 -65 2 -10 26 -6 41 6
8 6 32 17 53 24 20 6 37 15 37 18 0 4 30 25 66 47 71 43 104 86 83 111 -13 16
-29 16 -76 3z"/>
<path d="M3090 10981 c0 -5 7 -24 15 -42 l14 -34 1 43 c0 31 -4 42 -15 42 -8
0 -15 -4 -15 -9z"/>
<path d="M3123 10883 c3 -10 8 -35 12 -55 7 -43 22 -50 31 -14 11 45 1 81 -24
84 -19 3 -23 0 -19 -15z"/>
<path d="M2867 10706 c-3 -8 -19 -17 -36 -21 -38 -8 -46 -50 -16 -85 7 -8 10
-21 8 -27 -3 -7 2 -13 10 -13 10 0 13 7 10 19 -3 13 3 25 21 36 26 17 52 77
41 95 -9 15 -32 12 -38 -4z"/>
<path d="M4240 10481 c0 -12 6 -21 16 -21 9 0 14 7 12 17 -5 25 -28 28 -28 4z"/>
<path d="M4665 10490 c-3 -5 -14 -10 -24 -10 -14 0 -20 -11 -25 -45 -4 -26 -3
-53 4 -65 10 -18 13 -19 34 -5 29 19 46 56 46 100 0 34 -20 49 -35 25z"/>
<path d="M4380 10388 l-28 -63 30 -3 c38 -4 71 18 92 63 23 48 15 65 -29 65
-35 0 -37 -3 -65 -62z"/>
<path d="M3250 10231 c0 -37 2 -41 25 -41 26 0 32 14 15 40 -7 11 -10 11 -10
2 0 -7 -4 -11 -10 -7 -5 3 -7 12 -4 19 3 8 1 17 -5 21 -7 4 -11 -8 -11 -34z"/>
<path d="M4508 10148 c-35 -12 -35 -30 -2 -73 25 -33 54 -38 54 -9 0 8 5 14
10 14 17 0 11 35 -10 58 -12 12 -22 22 -23 21 -1 0 -14 -5 -29 -11z"/>
<path d="M140 10004 c-127 -59 -140 -68 -140 -91 0 -31 27 -30 74 2 20 14 41
25 47 25 5 0 27 9 48 20 22 11 58 22 80 26 31 5 41 11 41 25 0 29 -81 25 -150
-7z"/>
<path d="M10223 9934 c-8 -22 14 -34 64 -34 81 0 97 21 29 39 -61 15 -86 14
-93 -5z"/>
<path d="M3225 9859 c-13 -40 6 -211 31 -287 13 -40 24 -79 24 -87 0 -8 4 -15
9 -15 20 0 41 33 41 63 -1 77 -19 215 -33 247 -9 19 -21 50 -27 68 -14 37 -35
42 -45 11z"/>
<path d="M3200 9283 c-23 -3 -43 -15 -59 -34 -13 -17 -21 -32 -19 -34 11 -11
140 9 158 25 23 20 26 40 8 40 -7 0 -22 2 -33 4 -11 2 -36 1 -55 -1z"/>
<path d="M3352 9231 c-21 -13 11 -33 42 -25 32 8 33 20 4 28 -29 7 -30 7 -46
-3z"/>
<path d="M4087 8538 c-18 -14 -13 -29 17 -45 31 -17 56 -4 56 28 0 25 -4 29
-28 29 -16 0 -36 -6 -45 -12z"/>
<path d="M2357 8304 c-9 -10 4 -34 19 -34 8 0 14 4 14 9 0 12 -26 32 -33 25z"/>
<path d="M3876 8192 c-12 -19 -16 -124 -6 -143 14 -25 27 -24 67 7 20 15 51
27 81 30 57 6 72 11 72 22 0 9 -99 57 -145 71 -16 5 -37 12 -46 16 -10 3 -20
2 -23 -3z"/>
<path d="M224 8175 c-19 -15 -19 -15 0 -30 35 -27 116 -13 116 19 0 29 -83 36
-116 11z"/>
<path d="M4980 8146 c0 -24 16 -27 35 -6 18 19 17 20 -8 20 -17 0 -27 -5 -27
-14z"/>
<path d="M160 8034 c0 -16 -11 -23 -48 -33 -27 -6 -56 -9 -65 -5 -30 11 -47
-14 -45 -67 1 -57 19 -80 49 -61 10 7 26 12 34 12 10 0 15 10 15 31 0 25 5 32
31 41 23 8 29 15 26 29 -3 11 -2 19 3 19 13 0 21 33 10 44 -7 7 -10 4 -10 -10z"/>
<path d="M240 8020 c0 -5 6 -10 14 -10 8 0 18 5 21 10 3 6 -3 10 -14 10 -12 0
-21 -4 -21 -10z"/>
<path d="M240 7990 c0 -5 7 -7 15 -4 8 4 15 8 15 10 0 2 -7 4 -15 4 -8 0 -15
-4 -15 -10z"/>
<path d="M4193 7473 c9 -2 25 -2 35 0 9 3 1 5 -18 5 -19 0 -27 -2 -17 -5z"/>
<path d="M3090 6730 l0 -371 158 7 c86 4 165 11 174 16 44 22 48 50 44 355 -3
314 -7 334 -59 353 -16 5 -95 10 -173 10 l-144 0 0 -370z"/>
</g>
</svg>
